<svg xmlns="http://www.w3.org/2000/svg" width="640" height="240" font-family="sans-serif">
<text x="16" y="24" font-size="14" font-weight="bold">daily smoke — startup ms (hls_vod × hlsjs, unlimited)</text>
<polyline points="60.0,169.1 70.2,144.2 80.4,163.3 90.5,128.5 100.7,126.2 110.9,154.1 121.1,128.2 131.3,123.9 141.5,129.5 151.6,166.8 161.8,165.4 172.0,127.0 182.2,138.8 192.4,161.8 202.5,130.2 212.7,125.1 222.9,165.7 233.1,124.0 243.3,160.5 253.5,125.8 263.6,159.3 273.8,162.5 284.0,129.0 294.2,166.5 304.4,139.1 314.5,118.1 324.7,132.7 334.9,169.2 345.1,140.6 355.3,131.0 365.5,127.9 375.6,167.7 385.8,129.7 396.0,168.9 406.2,137.1 416.4,127.9 426.5,104.7 436.7,160.9 446.9,134.1 457.1,162.6 467.3,126.7 477.5,143.6 487.6,130.3 497.8,137.3 508.0,131.2 518.2,132.9 528.4,125.1 538.5,141.2 548.7,142.4 558.9,40.0 569.1,136.6 579.3,159.1 589.5,136.1 599.6,132.8 609.8,129.0 620.0,137.3" fill="none" stroke="#2563eb" stroke-width="2"/>
<circle cx="60.0" cy="169.1" r="3" fill="#2563eb"/><text x="60.0" y="228" text-anchor="middle" font-size="10">08-02</text><text x="60.0" y="161.1" text-anchor="middle" font-size="10">623</text>
<circle cx="70.2" cy="144.2" r="3" fill="#2563eb"/><text x="70.2" y="228" text-anchor="middle" font-size="10">08-02</text><text x="70.2" y="136.2" text-anchor="middle" font-size="10">1125</text>
<circle cx="80.4" cy="163.3" r="3" fill="#2563eb"/><text x="80.4" y="228" text-anchor="middle" font-size="10">08-03</text><text x="80.4" y="155.3" text-anchor="middle" font-size="10">739</text>
<circle cx="90.5" cy="128.5" r="3" fill="#2563eb"/><text x="90.5" y="228" text-anchor="middle" font-size="10">08-03</text><text x="90.5" y="120.5" text-anchor="middle" font-size="10">1440</text>
<circle cx="100.7" cy="126.2" r="3" fill="#2563eb"/><text x="100.7" y="228" text-anchor="middle" font-size="10">08-03</text><text x="100.7" y="118.2" text-anchor="middle" font-size="10">1488</text>
<circle cx="110.9" cy="154.1" r="3" fill="#2563eb"/><text x="110.9" y="228" text-anchor="middle" font-size="10">08-04</text><text x="110.9" y="146.1" text-anchor="middle" font-size="10">925</text>
<circle cx="121.1" cy="128.2" r="3" fill="#2563eb"/><text x="121.1" y="228" text-anchor="middle" font-size="10">08-05</text><text x="121.1" y="120.2" text-anchor="middle" font-size="10">1446</text>
<circle cx="131.3" cy="123.9" r="3" fill="#2563eb"/><text x="131.3" y="228" text-anchor="middle" font-size="10">08-07</text><text x="131.3" y="115.9" text-anchor="middle" font-size="10">1534</text>
<circle cx="141.5" cy="129.5" r="3" fill="#2563eb"/><text x="141.5" y="228" text-anchor="middle" font-size="10">08-07</text><text x="141.5" y="121.5" text-anchor="middle" font-size="10">1420</text>
<circle cx="151.6" cy="166.8" r="3" fill="#2563eb"/><text x="151.6" y="228" text-anchor="middle" font-size="10">08-08</text><text x="151.6" y="158.8" text-anchor="middle" font-size="10">669</text>
<circle cx="161.8" cy="165.4" r="3" fill="#2563eb"/><text x="161.8" y="228" text-anchor="middle" font-size="10">08-09</text><text x="161.8" y="157.4" text-anchor="middle" font-size="10">697</text>
<circle cx="172.0" cy="127.0" r="3" fill="#2563eb"/><text x="172.0" y="228" text-anchor="middle" font-size="10">08-10</text><text x="172.0" y="119.0" text-anchor="middle" font-size="10">1471</text>
<circle cx="182.2" cy="138.8" r="3" fill="#2563eb"/><text x="182.2" y="228" text-anchor="middle" font-size="10">08-10</text><text x="182.2" y="130.8" text-anchor="middle" font-size="10">1233</text>
<circle cx="192.4" cy="161.8" r="3" fill="#2563eb"/><text x="192.4" y="228" text-anchor="middle" font-size="10">08-11</text><text x="192.4" y="153.8" text-anchor="middle" font-size="10">769</text>
<circle cx="202.5" cy="130.2" r="3" fill="#2563eb"/><text x="202.5" y="228" text-anchor="middle" font-size="10">08-12</text><text x="202.5" y="122.2" text-anchor="middle" font-size="10">1406</text>
<circle cx="212.7" cy="125.1" r="3" fill="#2563eb"/><text x="212.7" y="228" text-anchor="middle" font-size="10">08-13</text><text x="212.7" y="117.1" text-anchor="middle" font-size="10">1509</text>
<circle cx="222.9" cy="165.7" r="3" fill="#2563eb"/><text x="222.9" y="228" text-anchor="middle" font-size="10">08-14</text><text x="222.9" y="157.7" text-anchor="middle" font-size="10">691</text>
<circle cx="233.1" cy="124.0" r="3" fill="#2563eb"/><text x="233.1" y="228" text-anchor="middle" font-size="10">08-15</text><text x="233.1" y="116.0" text-anchor="middle" font-size="10">1532</text>
<circle cx="243.3" cy="160.5" r="3" fill="#2563eb"/><text x="243.3" y="228" text-anchor="middle" font-size="10">08-16</text><text x="243.3" y="152.5" text-anchor="middle" font-size="10">796</text>
<circle cx="253.5" cy="125.8" r="3" fill="#2563eb"/><text x="253.5" y="228" text-anchor="middle" font-size="10">08-17</text><text x="253.5" y="117.8" text-anchor="middle" font-size="10">1496</text>
<circle cx="263.6" cy="159.3" r="3" fill="#2563eb"/><text x="263.6" y="228" text-anchor="middle" font-size="10">08-18</text><text x="263.6" y="151.3" text-anchor="middle" font-size="10">821</text>
<circle cx="273.8" cy="162.5" r="3" fill="#2563eb"/><text x="273.8" y="228" text-anchor="middle" font-size="10">08-20</text><text x="273.8" y="154.5" text-anchor="middle" font-size="10">755</text>
<circle cx="284.0" cy="129.0" r="3" fill="#2563eb"/><text x="284.0" y="228" text-anchor="middle" font-size="10">08-21</text><text x="284.0" y="121.0" text-anchor="middle" font-size="10">1430</text>
<circle cx="294.2" cy="166.5" r="3" fill="#2563eb"/><text x="294.2" y="228" text-anchor="middle" font-size="10">08-22</text><text x="294.2" y="158.5" text-anchor="middle" font-size="10">675</text>
<circle cx="304.4" cy="139.1" r="3" fill="#2563eb"/><text x="304.4" y="228" text-anchor="middle" font-size="10">08-23</text><text x="304.4" y="131.1" text-anchor="middle" font-size="10">1228</text>
<circle cx="314.5" cy="118.1" r="3" fill="#2563eb"/><text x="314.5" y="228" text-anchor="middle" font-size="10">08-24</text><text x="314.5" y="110.1" text-anchor="middle" font-size="10">1651</text>
<circle cx="324.7" cy="132.7" r="3" fill="#2563eb"/><text x="324.7" y="228" text-anchor="middle" font-size="10">08-25</text><text x="324.7" y="124.7" text-anchor="middle" font-size="10">1356</text>
<circle cx="334.9" cy="169.2" r="3" fill="#2563eb"/><text x="334.9" y="228" text-anchor="middle" font-size="10">08-27</text><text x="334.9" y="161.2" text-anchor="middle" font-size="10">620</text>
<circle cx="345.1" cy="140.6" r="3" fill="#2563eb"/><text x="345.1" y="228" text-anchor="middle" font-size="10">08-28</text><text x="345.1" y="132.6" text-anchor="middle" font-size="10">1196</text>
<circle cx="355.3" cy="131.0" r="3" fill="#2563eb"/><text x="355.3" y="228" text-anchor="middle" font-size="10">08-29</text><text x="355.3" y="123.0" text-anchor="middle" font-size="10">1390</text>
<circle cx="365.5" cy="127.9" r="3" fill="#2563eb"/><text x="365.5" y="228" text-anchor="middle" font-size="10">08-29</text><text x="365.5" y="119.9" text-anchor="middle" font-size="10">1452</text>
<circle cx="375.6" cy="167.7" r="3" fill="#2563eb"/><text x="375.6" y="228" text-anchor="middle" font-size="10">08-30</text><text x="375.6" y="159.7" text-anchor="middle" font-size="10">651</text>
<circle cx="385.8" cy="129.7" r="3" fill="#2563eb"/><text x="385.8" y="228" text-anchor="middle" font-size="10">09-01</text><text x="385.8" y="121.7" text-anchor="middle" font-size="10">1417</text>
<circle cx="396.0" cy="168.9" r="3" fill="#2563eb"/><text x="396.0" y="228" text-anchor="middle" font-size="10">09-01</text><text x="396.0" y="160.9" text-anchor="middle" font-size="10">626</text>
<circle cx="406.2" cy="137.1" r="3" fill="#2563eb"/><text x="406.2" y="228" text-anchor="middle" font-size="10">09-02</text><text x="406.2" y="129.1" text-anchor="middle" font-size="10">1267</text>
<circle cx="416.4" cy="127.9" r="3" fill="#2563eb"/><text x="416.4" y="228" text-anchor="middle" font-size="10">09-03</text><text x="416.4" y="119.9" text-anchor="middle" font-size="10">1453</text>
<circle cx="426.5" cy="104.7" r="3" fill="#2563eb"/><text x="426.5" y="228" text-anchor="middle" font-size="10">09-04</text><text x="426.5" y="96.7" text-anchor="middle" font-size="10">1921</text>
<circle cx="436.7" cy="160.9" r="3" fill="#2563eb"/><text x="436.7" y="228" text-anchor="middle" font-size="10">09-05</text><text x="436.7" y="152.9" text-anchor="middle" font-size="10">787</text>
<circle cx="446.9" cy="134.1" r="3" fill="#2563eb"/><text x="446.9" y="228" text-anchor="middle" font-size="10">09-06</text><text x="446.9" y="126.1" text-anchor="middle" font-size="10">1327</text>
<circle cx="457.1" cy="162.6" r="3" fill="#2563eb"/><text x="457.1" y="228" text-anchor="middle" font-size="10">09-07</text><text x="457.1" y="154.6" text-anchor="middle" font-size="10">753</text>
<circle cx="467.3" cy="126.7" r="3" fill="#2563eb"/><text x="467.3" y="228" text-anchor="middle" font-size="10">09-08</text><text x="467.3" y="118.7" text-anchor="middle" font-size="10">1478</text>
<circle cx="477.5" cy="143.6" r="3" fill="#2563eb"/><text x="477.5" y="228" text-anchor="middle" font-size="10">09-09</text><text x="477.5" y="135.6" text-anchor="middle" font-size="10">1136</text>
<circle cx="487.6" cy="130.3" r="3" fill="#2563eb"/><text x="487.6" y="228" text-anchor="middle" font-size="10">09-10</text><text x="487.6" y="122.3" text-anchor="middle" font-size="10">1405</text>
<circle cx="497.8" cy="137.3" r="3" fill="#2563eb"/><text x="497.8" y="228" text-anchor="middle" font-size="10">09-11</text><text x="497.8" y="129.3" text-anchor="middle" font-size="10">1263</text>
<circle cx="508.0" cy="131.2" r="3" fill="#2563eb"/><text x="508.0" y="228" text-anchor="middle" font-size="10">09-12</text><text x="508.0" y="123.2" text-anchor="middle" font-size="10">1387</text>
<circle cx="518.2" cy="132.9" r="3" fill="#2563eb"/><text x="518.2" y="228" text-anchor="middle" font-size="10">09-13</text><text x="518.2" y="124.9" text-anchor="middle" font-size="10">1352</text>
<circle cx="528.4" cy="125.1" r="3" fill="#2563eb"/><text x="528.4" y="228" text-anchor="middle" font-size="10">09-14</text><text x="528.4" y="117.1" text-anchor="middle" font-size="10">1509</text>
<circle cx="538.5" cy="141.2" r="3" fill="#2563eb"/><text x="538.5" y="228" text-anchor="middle" font-size="10">09-15</text><text x="538.5" y="133.2" text-anchor="middle" font-size="10">1185</text>
<circle cx="548.7" cy="142.4" r="3" fill="#2563eb"/><text x="548.7" y="228" text-anchor="middle" font-size="10">09-16</text><text x="548.7" y="134.4" text-anchor="middle" font-size="10">1161</text>
<circle cx="558.9" cy="40.0" r="3" fill="#2563eb"/><text x="558.9" y="228" text-anchor="middle" font-size="10">09-17</text><text x="558.9" y="32.0" text-anchor="middle" font-size="10">3224</text>
<circle cx="569.1" cy="136.6" r="3" fill="#2563eb"/><text x="569.1" y="228" text-anchor="middle" font-size="10">09-18</text><text x="569.1" y="128.6" text-anchor="middle" font-size="10">1277</text>
<circle cx="579.3" cy="159.1" r="3" fill="#2563eb"/><text x="579.3" y="228" text-anchor="middle" font-size="10">09-19</text><text x="579.3" y="151.1" text-anchor="middle" font-size="10">824</text>
<circle cx="589.5" cy="136.1" r="3" fill="#2563eb"/><text x="589.5" y="228" text-anchor="middle" font-size="10">09-20</text><text x="589.5" y="128.1" text-anchor="middle" font-size="10">1288</text>
<circle cx="599.6" cy="132.8" r="3" fill="#2563eb"/><text x="599.6" y="228" text-anchor="middle" font-size="10">09-21</text><text x="599.6" y="124.8" text-anchor="middle" font-size="10">1354</text>
<circle cx="609.8" cy="129.0" r="3" fill="#2563eb"/><text x="609.8" y="228" text-anchor="middle" font-size="10">09-22</text><text x="609.8" y="121.0" text-anchor="middle" font-size="10">1431</text>
<circle cx="620.0" cy="137.3" r="3" fill="#2563eb"/><text x="620.0" y="228" text-anchor="middle" font-size="10">09-23</text><text x="620.0" y="129.3" text-anchor="middle" font-size="10">1264</text>
</svg>