<svg xmlns="http://www.w3.org/2000/svg" width="640" height="240" font-family="sans-serif">
<text x="16" y="24" font-size="14" font-weight="bold">daily smoke — startup ms (hls_vod × hlsjs, unlimited)</text>
<polyline points="60.0,148.1 75.6,106.3 91.1,138.4 106.7,80.1 122.2,76.1 137.8,123.0 153.3,79.6 168.9,72.2 184.4,81.7 200.0,144.3 215.6,141.9 231.1,77.5 246.7,97.3 262.2,136.0 277.8,82.9 293.3,74.3 308.9,142.4 324.4,72.4 340.0,133.7 355.6,75.4 371.1,131.6 386.7,137.1 402.2,80.9 417.8,143.8 433.3,97.7 448.9,62.5 464.4,87.1 480.0,148.4 495.6,100.4 511.1,84.2 526.7,79.1 542.2,145.8 557.8,82.0 573.3,147.9 588.9,94.5 604.4,79.0 620.0,40.0" fill="none" stroke="#2563eb" stroke-width="2"/>
<circle cx="60.0" cy="148.1" r="3" fill="#2563eb"/><text x="60.0" y="228" text-anchor="middle" font-size="10">08-02</text><text x="60.0" y="140.1" text-anchor="middle" font-size="10">623</text>
<circle cx="75.6" cy="106.3" r="3" fill="#2563eb"/><text x="75.6" y="228" text-anchor="middle" font-size="10">08-02</text><text x="75.6" y="98.3" text-anchor="middle" font-size="10">1125</text>
<circle cx="91.1" cy="138.4" r="3" fill="#2563eb"/><text x="91.1" y="228" text-anchor="middle" font-size="10">08-03</text><text x="91.1" y="130.4" text-anchor="middle" font-size="10">739</text>
<circle cx="106.7" cy="80.1" r="3" fill="#2563eb"/><text x="106.7" y="228" text-anchor="middle" font-size="10">08-03</text><text x="106.7" y="72.1" text-anchor="middle" font-size="10">1440</text>
<circle cx="122.2" cy="76.1" r="3" fill="#2563eb"/><text x="122.2" y="228" text-anchor="middle" font-size="10">08-03</text><text x="122.2" y="68.1" text-anchor="middle" font-size="10">1488</text>
<circle cx="137.8" cy="123.0" r="3" fill="#2563eb"/><text x="137.8" y="228" text-anchor="middle" font-size="10">08-04</text><text x="137.8" y="115.0" text-anchor="middle" font-size="10">925</text>
<circle cx="153.3" cy="79.6" r="3" fill="#2563eb"/><text x="153.3" y="228" text-anchor="middle" font-size="10">08-05</text><text x="153.3" y="71.6" text-anchor="middle" font-size="10">1446</text>
<circle cx="168.9" cy="72.2" r="3" fill="#2563eb"/><text x="168.9" y="228" text-anchor="middle" font-size="10">08-07</text><text x="168.9" y="64.2" text-anchor="middle" font-size="10">1534</text>
<circle cx="184.4" cy="81.7" r="3" fill="#2563eb"/><text x="184.4" y="228" text-anchor="middle" font-size="10">08-07</text><text x="184.4" y="73.7" text-anchor="middle" font-size="10">1420</text>
<circle cx="200.0" cy="144.3" r="3" fill="#2563eb"/><text x="200.0" y="228" text-anchor="middle" font-size="10">08-08</text><text x="200.0" y="136.3" text-anchor="middle" font-size="10">669</text>
<circle cx="215.6" cy="141.9" r="3" fill="#2563eb"/><text x="215.6" y="228" text-anchor="middle" font-size="10">08-09</text><text x="215.6" y="133.9" text-anchor="middle" font-size="10">697</text>
<circle cx="231.1" cy="77.5" r="3" fill="#2563eb"/><text x="231.1" y="228" text-anchor="middle" font-size="10">08-10</text><text x="231.1" y="69.5" text-anchor="middle" font-size="10">1471</text>
<circle cx="246.7" cy="97.3" r="3" fill="#2563eb"/><text x="246.7" y="228" text-anchor="middle" font-size="10">08-10</text><text x="246.7" y="89.3" text-anchor="middle" font-size="10">1233</text>
<circle cx="262.2" cy="136.0" r="3" fill="#2563eb"/><text x="262.2" y="228" text-anchor="middle" font-size="10">08-11</text><text x="262.2" y="128.0" text-anchor="middle" font-size="10">769</text>
<circle cx="277.8" cy="82.9" r="3" fill="#2563eb"/><text x="277.8" y="228" text-anchor="middle" font-size="10">08-12</text><text x="277.8" y="74.9" text-anchor="middle" font-size="10">1406</text>
<circle cx="293.3" cy="74.3" r="3" fill="#2563eb"/><text x="293.3" y="228" text-anchor="middle" font-size="10">08-13</text><text x="293.3" y="66.3" text-anchor="middle" font-size="10">1509</text>
<circle cx="308.9" cy="142.4" r="3" fill="#2563eb"/><text x="308.9" y="228" text-anchor="middle" font-size="10">08-14</text><text x="308.9" y="134.4" text-anchor="middle" font-size="10">691</text>
<circle cx="324.4" cy="72.4" r="3" fill="#2563eb"/><text x="324.4" y="228" text-anchor="middle" font-size="10">08-15</text><text x="324.4" y="64.4" text-anchor="middle" font-size="10">1532</text>
<circle cx="340.0" cy="133.7" r="3" fill="#2563eb"/><text x="340.0" y="228" text-anchor="middle" font-size="10">08-16</text><text x="340.0" y="125.7" text-anchor="middle" font-size="10">796</text>
<circle cx="355.6" cy="75.4" r="3" fill="#2563eb"/><text x="355.6" y="228" text-anchor="middle" font-size="10">08-17</text><text x="355.6" y="67.4" text-anchor="middle" font-size="10">1496</text>
<circle cx="371.1" cy="131.6" r="3" fill="#2563eb"/><text x="371.1" y="228" text-anchor="middle" font-size="10">08-18</text><text x="371.1" y="123.6" text-anchor="middle" font-size="10">821</text>
<circle cx="386.7" cy="137.1" r="3" fill="#2563eb"/><text x="386.7" y="228" text-anchor="middle" font-size="10">08-20</text><text x="386.7" y="129.1" text-anchor="middle" font-size="10">755</text>
<circle cx="402.2" cy="80.9" r="3" fill="#2563eb"/><text x="402.2" y="228" text-anchor="middle" font-size="10">08-21</text><text x="402.2" y="72.9" text-anchor="middle" font-size="10">1430</text>
<circle cx="417.8" cy="143.8" r="3" fill="#2563eb"/><text x="417.8" y="228" text-anchor="middle" font-size="10">08-22</text><text x="417.8" y="135.8" text-anchor="middle" font-size="10">675</text>
<circle cx="433.3" cy="97.7" r="3" fill="#2563eb"/><text x="433.3" y="228" text-anchor="middle" font-size="10">08-23</text><text x="433.3" y="89.7" text-anchor="middle" font-size="10">1228</text>
<circle cx="448.9" cy="62.5" r="3" fill="#2563eb"/><text x="448.9" y="228" text-anchor="middle" font-size="10">08-24</text><text x="448.9" y="54.5" text-anchor="middle" font-size="10">1651</text>
<circle cx="464.4" cy="87.1" r="3" fill="#2563eb"/><text x="464.4" y="228" text-anchor="middle" font-size="10">08-25</text><text x="464.4" y="79.1" text-anchor="middle" font-size="10">1356</text>
<circle cx="480.0" cy="148.4" r="3" fill="#2563eb"/><text x="480.0" y="228" text-anchor="middle" font-size="10">08-27</text><text x="480.0" y="140.4" text-anchor="middle" font-size="10">620</text>
<circle cx="495.6" cy="100.4" r="3" fill="#2563eb"/><text x="495.6" y="228" text-anchor="middle" font-size="10">08-28</text><text x="495.6" y="92.4" text-anchor="middle" font-size="10">1196</text>
<circle cx="511.1" cy="84.2" r="3" fill="#2563eb"/><text x="511.1" y="228" text-anchor="middle" font-size="10">08-29</text><text x="511.1" y="76.2" text-anchor="middle" font-size="10">1390</text>
<circle cx="526.7" cy="79.1" r="3" fill="#2563eb"/><text x="526.7" y="228" text-anchor="middle" font-size="10">08-29</text><text x="526.7" y="71.1" text-anchor="middle" font-size="10">1452</text>
<circle cx="542.2" cy="145.8" r="3" fill="#2563eb"/><text x="542.2" y="228" text-anchor="middle" font-size="10">08-30</text><text x="542.2" y="137.8" text-anchor="middle" font-size="10">651</text>
<circle cx="557.8" cy="82.0" r="3" fill="#2563eb"/><text x="557.8" y="228" text-anchor="middle" font-size="10">09-01</text><text x="557.8" y="74.0" text-anchor="middle" font-size="10">1417</text>
<circle cx="573.3" cy="147.9" r="3" fill="#2563eb"/><text x="573.3" y="228" text-anchor="middle" font-size="10">09-01</text><text x="573.3" y="139.9" text-anchor="middle" font-size="10">626</text>
<circle cx="588.9" cy="94.5" r="3" fill="#2563eb"/><text x="588.9" y="228" text-anchor="middle" font-size="10">09-02</text><text x="588.9" y="86.5" text-anchor="middle" font-size="10">1267</text>
<circle cx="604.4" cy="79.0" r="3" fill="#2563eb"/><text x="604.4" y="228" text-anchor="middle" font-size="10">09-03</text><text x="604.4" y="71.0" text-anchor="middle" font-size="10">1453</text>
<circle cx="620.0" cy="40.0" r="3" fill="#2563eb"/><text x="620.0" y="228" text-anchor="middle" font-size="10">09-04</text><text x="620.0" y="32.0" text-anchor="middle" font-size="10">1921</text>
</svg>