<svg xmlns="http://www.w3.org/2000/svg" width="640" height="240" font-family="sans-serif">
<text x="16" y="24" font-size="14" font-weight="bold">daily smoke — startup ms (hls_vod × hlsjs, unlimited)</text>
<polyline points="60.0,148.1 74.0,106.3 88.0,138.4 102.0,80.1 116.0,76.1 130.0,123.0 144.0,79.6 158.0,72.2 172.0,81.7 186.0,144.3 200.0,141.9 214.0,77.5 228.0,97.3 242.0,136.0 256.0,82.9 270.0,74.3 284.0,142.4 298.0,72.4 312.0,133.7 326.0,75.4 340.0,131.6 354.0,137.1 368.0,80.9 382.0,143.8 396.0,97.7 410.0,62.5 424.0,87.1 438.0,148.4 452.0,100.4 466.0,84.2 480.0,79.1 494.0,145.8 508.0,82.0 522.0,147.9 536.0,94.5 550.0,79.0 564.0,40.0 578.0,134.5 592.0,89.5 606.0,137.3 620.0,76.9" fill="none" stroke="#2563eb" stroke-width="2"/>
<circle cx="60.0" cy="148.1" r="3" fill="#2563eb"/><text x="60.0" y="228" text-anchor="middle" font-size="10">08-02</text><text x="60.0" y="140.1" text-anchor="middle" font-size="10">623</text>
<circle cx="74.0" cy="106.3" r="3" fill="#2563eb"/><text x="74.0" y="228" text-anchor="middle" font-size="10">08-02</text><text x="74.0" y="98.3" text-anchor="middle" font-size="10">1125</text>
<circle cx="88.0" cy="138.4" r="3" fill="#2563eb"/><text x="88.0" y="228" text-anchor="middle" font-size="10">08-03</text><text x="88.0" y="130.4" text-anchor="middle" font-size="10">739</text>
<circle cx="102.0" cy="80.1" r="3" fill="#2563eb"/><text x="102.0" y="228" text-anchor="middle" font-size="10">08-03</text><text x="102.0" y="72.1" text-anchor="middle" font-size="10">1440</text>
<circle cx="116.0" cy="76.1" r="3" fill="#2563eb"/><text x="116.0" y="228" text-anchor="middle" font-size="10">08-03</text><text x="116.0" y="68.1" text-anchor="middle" font-size="10">1488</text>
<circle cx="130.0" cy="123.0" r="3" fill="#2563eb"/><text x="130.0" y="228" text-anchor="middle" font-size="10">08-04</text><text x="130.0" y="115.0" text-anchor="middle" font-size="10">925</text>
<circle cx="144.0" cy="79.6" r="3" fill="#2563eb"/><text x="144.0" y="228" text-anchor="middle" font-size="10">08-05</text><text x="144.0" y="71.6" text-anchor="middle" font-size="10">1446</text>
<circle cx="158.0" cy="72.2" r="3" fill="#2563eb"/><text x="158.0" y="228" text-anchor="middle" font-size="10">08-07</text><text x="158.0" y="64.2" text-anchor="middle" font-size="10">1534</text>
<circle cx="172.0" cy="81.7" r="3" fill="#2563eb"/><text x="172.0" y="228" text-anchor="middle" font-size="10">08-07</text><text x="172.0" y="73.7" text-anchor="middle" font-size="10">1420</text>
<circle cx="186.0" cy="144.3" r="3" fill="#2563eb"/><text x="186.0" y="228" text-anchor="middle" font-size="10">08-08</text><text x="186.0" y="136.3" text-anchor="middle" font-size="10">669</text>
<circle cx="200.0" cy="141.9" r="3" fill="#2563eb"/><text x="200.0" y="228" text-anchor="middle" font-size="10">08-09</text><text x="200.0" y="133.9" text-anchor="middle" font-size="10">697</text>
<circle cx="214.0" cy="77.5" r="3" fill="#2563eb"/><text x="214.0" y="228" text-anchor="middle" font-size="10">08-10</text><text x="214.0" y="69.5" text-anchor="middle" font-size="10">1471</text>
<circle cx="228.0" cy="97.3" r="3" fill="#2563eb"/><text x="228.0" y="228" text-anchor="middle" font-size="10">08-10</text><text x="228.0" y="89.3" text-anchor="middle" font-size="10">1233</text>
<circle cx="242.0" cy="136.0" r="3" fill="#2563eb"/><text x="242.0" y="228" text-anchor="middle" font-size="10">08-11</text><text x="242.0" y="128.0" text-anchor="middle" font-size="10">769</text>
<circle cx="256.0" cy="82.9" r="3" fill="#2563eb"/><text x="256.0" y="228" text-anchor="middle" font-size="10">08-12</text><text x="256.0" y="74.9" text-anchor="middle" font-size="10">1406</text>
<circle cx="270.0" cy="74.3" r="3" fill="#2563eb"/><text x="270.0" y="228" text-anchor="middle" font-size="10">08-13</text><text x="270.0" y="66.3" text-anchor="middle" font-size="10">1509</text>
<circle cx="284.0" cy="142.4" r="3" fill="#2563eb"/><text x="284.0" y="228" text-anchor="middle" font-size="10">08-14</text><text x="284.0" y="134.4" text-anchor="middle" font-size="10">691</text>
<circle cx="298.0" cy="72.4" r="3" fill="#2563eb"/><text x="298.0" y="228" text-anchor="middle" font-size="10">08-15</text><text x="298.0" y="64.4" text-anchor="middle" font-size="10">1532</text>
<circle cx="312.0" cy="133.7" r="3" fill="#2563eb"/><text x="312.0" y="228" text-anchor="middle" font-size="10">08-16</text><text x="312.0" y="125.7" text-anchor="middle" font-size="10">796</text>
<circle cx="326.0" cy="75.4" r="3" fill="#2563eb"/><text x="326.0" y="228" text-anchor="middle" font-size="10">08-17</text><text x="326.0" y="67.4" text-anchor="middle" font-size="10">1496</text>
<circle cx="340.0" cy="131.6" r="3" fill="#2563eb"/><text x="340.0" y="228" text-anchor="middle" font-size="10">08-18</text><text x="340.0" y="123.6" text-anchor="middle" font-size="10">821</text>
<circle cx="354.0" cy="137.1" r="3" fill="#2563eb"/><text x="354.0" y="228" text-anchor="middle" font-size="10">08-20</text><text x="354.0" y="129.1" text-anchor="middle" font-size="10">755</text>
<circle cx="368.0" cy="80.9" r="3" fill="#2563eb"/><text x="368.0" y="228" text-anchor="middle" font-size="10">08-21</text><text x="368.0" y="72.9" text-anchor="middle" font-size="10">1430</text>
<circle cx="382.0" cy="143.8" r="3" fill="#2563eb"/><text x="382.0" y="228" text-anchor="middle" font-size="10">08-22</text><text x="382.0" y="135.8" text-anchor="middle" font-size="10">675</text>
<circle cx="396.0" cy="97.7" r="3" fill="#2563eb"/><text x="396.0" y="228" text-anchor="middle" font-size="10">08-23</text><text x="396.0" y="89.7" text-anchor="middle" font-size="10">1228</text>
<circle cx="410.0" cy="62.5" r="3" fill="#2563eb"/><text x="410.0" y="228" text-anchor="middle" font-size="10">08-24</text><text x="410.0" y="54.5" text-anchor="middle" font-size="10">1651</text>
<circle cx="424.0" cy="87.1" r="3" fill="#2563eb"/><text x="424.0" y="228" text-anchor="middle" font-size="10">08-25</text><text x="424.0" y="79.1" text-anchor="middle" font-size="10">1356</text>
<circle cx="438.0" cy="148.4" r="3" fill="#2563eb"/><text x="438.0" y="228" text-anchor="middle" font-size="10">08-27</text><text x="438.0" y="140.4" text-anchor="middle" font-size="10">620</text>
<circle cx="452.0" cy="100.4" r="3" fill="#2563eb"/><text x="452.0" y="228" text-anchor="middle" font-size="10">08-28</text><text x="452.0" y="92.4" text-anchor="middle" font-size="10">1196</text>
<circle cx="466.0" cy="84.2" r="3" fill="#2563eb"/><text x="466.0" y="228" text-anchor="middle" font-size="10">08-29</text><text x="466.0" y="76.2" text-anchor="middle" font-size="10">1390</text>
<circle cx="480.0" cy="79.1" r="3" fill="#2563eb"/><text x="480.0" y="228" text-anchor="middle" font-size="10">08-29</text><text x="480.0" y="71.1" text-anchor="middle" font-size="10">1452</text>
<circle cx="494.0" cy="145.8" r="3" fill="#2563eb"/><text x="494.0" y="228" text-anchor="middle" font-size="10">08-30</text><text x="494.0" y="137.8" text-anchor="middle" font-size="10">651</text>
<circle cx="508.0" cy="82.0" r="3" fill="#2563eb"/><text x="508.0" y="228" text-anchor="middle" font-size="10">09-01</text><text x="508.0" y="74.0" text-anchor="middle" font-size="10">1417</text>
<circle cx="522.0" cy="147.9" r="3" fill="#2563eb"/><text x="522.0" y="228" text-anchor="middle" font-size="10">09-01</text><text x="522.0" y="139.9" text-anchor="middle" font-size="10">626</text>
<circle cx="536.0" cy="94.5" r="3" fill="#2563eb"/><text x="536.0" y="228" text-anchor="middle" font-size="10">09-02</text><text x="536.0" y="86.5" text-anchor="middle" font-size="10">1267</text>
<circle cx="550.0" cy="79.0" r="3" fill="#2563eb"/><text x="550.0" y="228" text-anchor="middle" font-size="10">09-03</text><text x="550.0" y="71.0" text-anchor="middle" font-size="10">1453</text>
<circle cx="564.0" cy="40.0" r="3" fill="#2563eb"/><text x="564.0" y="228" text-anchor="middle" font-size="10">09-04</text><text x="564.0" y="32.0" text-anchor="middle" font-size="10">1921</text>
<circle cx="578.0" cy="134.5" r="3" fill="#2563eb"/><text x="578.0" y="228" text-anchor="middle" font-size="10">09-05</text><text x="578.0" y="126.5" text-anchor="middle" font-size="10">787</text>
<circle cx="592.0" cy="89.5" r="3" fill="#2563eb"/><text x="592.0" y="228" text-anchor="middle" font-size="10">09-06</text><text x="592.0" y="81.5" text-anchor="middle" font-size="10">1327</text>
<circle cx="606.0" cy="137.3" r="3" fill="#2563eb"/><text x="606.0" y="228" text-anchor="middle" font-size="10">09-07</text><text x="606.0" y="129.3" text-anchor="middle" font-size="10">753</text>
<circle cx="620.0" cy="76.9" r="3" fill="#2563eb"/><text x="620.0" y="228" text-anchor="middle" font-size="10">09-08</text><text x="620.0" y="68.9" text-anchor="middle" font-size="10">1478</text>
</svg>