<svg xmlns="http://www.w3.org/2000/svg" width="640" height="240" font-family="sans-serif">
<text x="16" y="24" font-size="14" font-weight="bold">daily smoke — startup ms (hls_vod × hlsjs, unlimited)</text>
<polyline points="60.0,148.1 73.7,106.3 87.3,138.4 101.0,80.1 114.6,76.1 128.3,123.0 142.0,79.6 155.6,72.2 169.3,81.7 182.9,144.3 196.6,141.9 210.2,77.5 223.9,97.3 237.6,136.0 251.2,82.9 264.9,74.3 278.5,142.4 292.2,72.4 305.9,133.7 319.5,75.4 333.2,131.6 346.8,137.1 360.5,80.9 374.1,143.8 387.8,97.7 401.5,62.5 415.1,87.1 428.8,148.4 442.4,100.4 456.1,84.2 469.8,79.1 483.4,145.8 497.1,82.0 510.7,147.9 524.4,94.5 538.0,79.0 551.7,40.0 565.4,134.5 579.0,89.5 592.7,137.3 606.3,76.9 620.0,105.4" fill="none" stroke="#2563eb" stroke-width="2"/>
<circle cx="60.0" cy="148.1" r="3" fill="#2563eb"/><text x="60.0" y="228" text-anchor="middle" font-size="10">08-02</text><text x="60.0" y="140.1" text-anchor="middle" font-size="10">623</text>
<circle cx="73.7" cy="106.3" r="3" fill="#2563eb"/><text x="73.7" y="228" text-anchor="middle" font-size="10">08-02</text><text x="73.7" y="98.3" text-anchor="middle" font-size="10">1125</text>
<circle cx="87.3" cy="138.4" r="3" fill="#2563eb"/><text x="87.3" y="228" text-anchor="middle" font-size="10">08-03</text><text x="87.3" y="130.4" text-anchor="middle" font-size="10">739</text>
<circle cx="101.0" cy="80.1" r="3" fill="#2563eb"/><text x="101.0" y="228" text-anchor="middle" font-size="10">08-03</text><text x="101.0" y="72.1" text-anchor="middle" font-size="10">1440</text>
<circle cx="114.6" cy="76.1" r="3" fill="#2563eb"/><text x="114.6" y="228" text-anchor="middle" font-size="10">08-03</text><text x="114.6" y="68.1" text-anchor="middle" font-size="10">1488</text>
<circle cx="128.3" cy="123.0" r="3" fill="#2563eb"/><text x="128.3" y="228" text-anchor="middle" font-size="10">08-04</text><text x="128.3" y="115.0" text-anchor="middle" font-size="10">925</text>
<circle cx="142.0" cy="79.6" r="3" fill="#2563eb"/><text x="142.0" y="228" text-anchor="middle" font-size="10">08-05</text><text x="142.0" y="71.6" text-anchor="middle" font-size="10">1446</text>
<circle cx="155.6" cy="72.2" r="3" fill="#2563eb"/><text x="155.6" y="228" text-anchor="middle" font-size="10">08-07</text><text x="155.6" y="64.2" text-anchor="middle" font-size="10">1534</text>
<circle cx="169.3" cy="81.7" r="3" fill="#2563eb"/><text x="169.3" y="228" text-anchor="middle" font-size="10">08-07</text><text x="169.3" y="73.7" text-anchor="middle" font-size="10">1420</text>
<circle cx="182.9" cy="144.3" r="3" fill="#2563eb"/><text x="182.9" y="228" text-anchor="middle" font-size="10">08-08</text><text x="182.9" y="136.3" text-anchor="middle" font-size="10">669</text>
<circle cx="196.6" cy="141.9" r="3" fill="#2563eb"/><text x="196.6" y="228" text-anchor="middle" font-size="10">08-09</text><text x="196.6" y="133.9" text-anchor="middle" font-size="10">697</text>
<circle cx="210.2" cy="77.5" r="3" fill="#2563eb"/><text x="210.2" y="228" text-anchor="middle" font-size="10">08-10</text><text x="210.2" y="69.5" text-anchor="middle" font-size="10">1471</text>
<circle cx="223.9" cy="97.3" r="3" fill="#2563eb"/><text x="223.9" y="228" text-anchor="middle" font-size="10">08-10</text><text x="223.9" y="89.3" text-anchor="middle" font-size="10">1233</text>
<circle cx="237.6" cy="136.0" r="3" fill="#2563eb"/><text x="237.6" y="228" text-anchor="middle" font-size="10">08-11</text><text x="237.6" y="128.0" text-anchor="middle" font-size="10">769</text>
<circle cx="251.2" cy="82.9" r="3" fill="#2563eb"/><text x="251.2" y="228" text-anchor="middle" font-size="10">08-12</text><text x="251.2" y="74.9" text-anchor="middle" font-size="10">1406</text>
<circle cx="264.9" cy="74.3" r="3" fill="#2563eb"/><text x="264.9" y="228" text-anchor="middle" font-size="10">08-13</text><text x="264.9" y="66.3" text-anchor="middle" font-size="10">1509</text>
<circle cx="278.5" cy="142.4" r="3" fill="#2563eb"/><text x="278.5" y="228" text-anchor="middle" font-size="10">08-14</text><text x="278.5" y="134.4" text-anchor="middle" font-size="10">691</text>
<circle cx="292.2" cy="72.4" r="3" fill="#2563eb"/><text x="292.2" y="228" text-anchor="middle" font-size="10">08-15</text><text x="292.2" y="64.4" text-anchor="middle" font-size="10">1532</text>
<circle cx="305.9" cy="133.7" r="3" fill="#2563eb"/><text x="305.9" y="228" text-anchor="middle" font-size="10">08-16</text><text x="305.9" y="125.7" text-anchor="middle" font-size="10">796</text>
<circle cx="319.5" cy="75.4" r="3" fill="#2563eb"/><text x="319.5" y="228" text-anchor="middle" font-size="10">08-17</text><text x="319.5" y="67.4" text-anchor="middle" font-size="10">1496</text>
<circle cx="333.2" cy="131.6" r="3" fill="#2563eb"/><text x="333.2" y="228" text-anchor="middle" font-size="10">08-18</text><text x="333.2" y="123.6" text-anchor="middle" font-size="10">821</text>
<circle cx="346.8" cy="137.1" r="3" fill="#2563eb"/><text x="346.8" y="228" text-anchor="middle" font-size="10">08-20</text><text x="346.8" y="129.1" text-anchor="middle" font-size="10">755</text>
<circle cx="360.5" cy="80.9" r="3" fill="#2563eb"/><text x="360.5" y="228" text-anchor="middle" font-size="10">08-21</text><text x="360.5" y="72.9" text-anchor="middle" font-size="10">1430</text>
<circle cx="374.1" cy="143.8" r="3" fill="#2563eb"/><text x="374.1" y="228" text-anchor="middle" font-size="10">08-22</text><text x="374.1" y="135.8" text-anchor="middle" font-size="10">675</text>
<circle cx="387.8" cy="97.7" r="3" fill="#2563eb"/><text x="387.8" y="228" text-anchor="middle" font-size="10">08-23</text><text x="387.8" y="89.7" text-anchor="middle" font-size="10">1228</text>
<circle cx="401.5" cy="62.5" r="3" fill="#2563eb"/><text x="401.5" y="228" text-anchor="middle" font-size="10">08-24</text><text x="401.5" y="54.5" text-anchor="middle" font-size="10">1651</text>
<circle cx="415.1" cy="87.1" r="3" fill="#2563eb"/><text x="415.1" y="228" text-anchor="middle" font-size="10">08-25</text><text x="415.1" y="79.1" text-anchor="middle" font-size="10">1356</text>
<circle cx="428.8" cy="148.4" r="3" fill="#2563eb"/><text x="428.8" y="228" text-anchor="middle" font-size="10">08-27</text><text x="428.8" y="140.4" text-anchor="middle" font-size="10">620</text>
<circle cx="442.4" cy="100.4" r="3" fill="#2563eb"/><text x="442.4" y="228" text-anchor="middle" font-size="10">08-28</text><text x="442.4" y="92.4" text-anchor="middle" font-size="10">1196</text>
<circle cx="456.1" cy="84.2" r="3" fill="#2563eb"/><text x="456.1" y="228" text-anchor="middle" font-size="10">08-29</text><text x="456.1" y="76.2" text-anchor="middle" font-size="10">1390</text>
<circle cx="469.8" cy="79.1" r="3" fill="#2563eb"/><text x="469.8" y="228" text-anchor="middle" font-size="10">08-29</text><text x="469.8" y="71.1" text-anchor="middle" font-size="10">1452</text>
<circle cx="483.4" cy="145.8" r="3" fill="#2563eb"/><text x="483.4" y="228" text-anchor="middle" font-size="10">08-30</text><text x="483.4" y="137.8" text-anchor="middle" font-size="10">651</text>
<circle cx="497.1" cy="82.0" r="3" fill="#2563eb"/><text x="497.1" y="228" text-anchor="middle" font-size="10">09-01</text><text x="497.1" y="74.0" text-anchor="middle" font-size="10">1417</text>
<circle cx="510.7" cy="147.9" r="3" fill="#2563eb"/><text x="510.7" y="228" text-anchor="middle" font-size="10">09-01</text><text x="510.7" y="139.9" text-anchor="middle" font-size="10">626</text>
<circle cx="524.4" cy="94.5" r="3" fill="#2563eb"/><text x="524.4" y="228" text-anchor="middle" font-size="10">09-02</text><text x="524.4" y="86.5" text-anchor="middle" font-size="10">1267</text>
<circle cx="538.0" cy="79.0" r="3" fill="#2563eb"/><text x="538.0" y="228" text-anchor="middle" font-size="10">09-03</text><text x="538.0" y="71.0" text-anchor="middle" font-size="10">1453</text>
<circle cx="551.7" cy="40.0" r="3" fill="#2563eb"/><text x="551.7" y="228" text-anchor="middle" font-size="10">09-04</text><text x="551.7" y="32.0" text-anchor="middle" font-size="10">1921</text>
<circle cx="565.4" cy="134.5" r="3" fill="#2563eb"/><text x="565.4" y="228" text-anchor="middle" font-size="10">09-05</text><text x="565.4" y="126.5" text-anchor="middle" font-size="10">787</text>
<circle cx="579.0" cy="89.5" r="3" fill="#2563eb"/><text x="579.0" y="228" text-anchor="middle" font-size="10">09-06</text><text x="579.0" y="81.5" text-anchor="middle" font-size="10">1327</text>
<circle cx="592.7" cy="137.3" r="3" fill="#2563eb"/><text x="592.7" y="228" text-anchor="middle" font-size="10">09-07</text><text x="592.7" y="129.3" text-anchor="middle" font-size="10">753</text>
<circle cx="606.3" cy="76.9" r="3" fill="#2563eb"/><text x="606.3" y="228" text-anchor="middle" font-size="10">09-08</text><text x="606.3" y="68.9" text-anchor="middle" font-size="10">1478</text>
<circle cx="620.0" cy="105.4" r="3" fill="#2563eb"/><text x="620.0" y="228" text-anchor="middle" font-size="10">09-09</text><text x="620.0" y="97.4" text-anchor="middle" font-size="10">1136</text>
</svg>