<svg xmlns="http://www.w3.org/2000/svg" width="640" height="240" font-family="sans-serif">
<text x="16" y="24" font-size="14" font-weight="bold">daily smoke — startup ms (hls_vod × hlsjs, unlimited)</text>
<polyline points="60.0,148.1 72.2,106.3 84.3,138.4 96.5,80.1 108.7,76.1 120.9,123.0 133.0,79.6 145.2,72.2 157.4,81.7 169.6,144.3 181.7,141.9 193.9,77.5 206.1,97.3 218.3,136.0 230.4,82.9 242.6,74.3 254.8,142.4 267.0,72.4 279.1,133.7 291.3,75.4 303.5,131.6 315.7,137.1 327.8,80.9 340.0,143.8 352.2,97.7 364.3,62.5 376.5,87.1 388.7,148.4 400.9,100.4 413.0,84.2 425.2,79.1 437.4,145.8 449.6,82.0 461.7,147.9 473.9,94.5 486.1,79.0 498.3,40.0 510.4,134.5 522.6,89.5 534.8,137.3 547.0,76.9 559.1,105.4 571.3,83.0 583.5,94.8 595.7,84.5 607.8,87.4 620.0,74.3" fill="none" stroke="#2563eb" stroke-width="2"/>
<circle cx="60.0" cy="148.1" r="3" fill="#2563eb"/><text x="60.0" y="228" text-anchor="middle" font-size="10">08-02</text><text x="60.0" y="140.1" text-anchor="middle" font-size="10">623</text>
<circle cx="72.2" cy="106.3" r="3" fill="#2563eb"/><text x="72.2" y="228" text-anchor="middle" font-size="10">08-02</text><text x="72.2" y="98.3" text-anchor="middle" font-size="10">1125</text>
<circle cx="84.3" cy="138.4" r="3" fill="#2563eb"/><text x="84.3" y="228" text-anchor="middle" font-size="10">08-03</text><text x="84.3" y="130.4" text-anchor="middle" font-size="10">739</text>
<circle cx="96.5" cy="80.1" r="3" fill="#2563eb"/><text x="96.5" y="228" text-anchor="middle" font-size="10">08-03</text><text x="96.5" y="72.1" text-anchor="middle" font-size="10">1440</text>
<circle cx="108.7" cy="76.1" r="3" fill="#2563eb"/><text x="108.7" y="228" text-anchor="middle" font-size="10">08-03</text><text x="108.7" y="68.1" text-anchor="middle" font-size="10">1488</text>
<circle cx="120.9" cy="123.0" r="3" fill="#2563eb"/><text x="120.9" y="228" text-anchor="middle" font-size="10">08-04</text><text x="120.9" y="115.0" text-anchor="middle" font-size="10">925</text>
<circle cx="133.0" cy="79.6" r="3" fill="#2563eb"/><text x="133.0" y="228" text-anchor="middle" font-size="10">08-05</text><text x="133.0" y="71.6" text-anchor="middle" font-size="10">1446</text>
<circle cx="145.2" cy="72.2" r="3" fill="#2563eb"/><text x="145.2" y="228" text-anchor="middle" font-size="10">08-07</text><text x="145.2" y="64.2" text-anchor="middle" font-size="10">1534</text>
<circle cx="157.4" cy="81.7" r="3" fill="#2563eb"/><text x="157.4" y="228" text-anchor="middle" font-size="10">08-07</text><text x="157.4" y="73.7" text-anchor="middle" font-size="10">1420</text>
<circle cx="169.6" cy="144.3" r="3" fill="#2563eb"/><text x="169.6" y="228" text-anchor="middle" font-size="10">08-08</text><text x="169.6" y="136.3" text-anchor="middle" font-size="10">669</text>
<circle cx="181.7" cy="141.9" r="3" fill="#2563eb"/><text x="181.7" y="228" text-anchor="middle" font-size="10">08-09</text><text x="181.7" y="133.9" text-anchor="middle" font-size="10">697</text>
<circle cx="193.9" cy="77.5" r="3" fill="#2563eb"/><text x="193.9" y="228" text-anchor="middle" font-size="10">08-10</text><text x="193.9" y="69.5" text-anchor="middle" font-size="10">1471</text>
<circle cx="206.1" cy="97.3" r="3" fill="#2563eb"/><text x="206.1" y="228" text-anchor="middle" font-size="10">08-10</text><text x="206.1" y="89.3" text-anchor="middle" font-size="10">1233</text>
<circle cx="218.3" cy="136.0" r="3" fill="#2563eb"/><text x="218.3" y="228" text-anchor="middle" font-size="10">08-11</text><text x="218.3" y="128.0" text-anchor="middle" font-size="10">769</text>
<circle cx="230.4" cy="82.9" r="3" fill="#2563eb"/><text x="230.4" y="228" text-anchor="middle" font-size="10">08-12</text><text x="230.4" y="74.9" text-anchor="middle" font-size="10">1406</text>
<circle cx="242.6" cy="74.3" r="3" fill="#2563eb"/><text x="242.6" y="228" text-anchor="middle" font-size="10">08-13</text><text x="242.6" y="66.3" text-anchor="middle" font-size="10">1509</text>
<circle cx="254.8" cy="142.4" r="3" fill="#2563eb"/><text x="254.8" y="228" text-anchor="middle" font-size="10">08-14</text><text x="254.8" y="134.4" text-anchor="middle" font-size="10">691</text>
<circle cx="267.0" cy="72.4" r="3" fill="#2563eb"/><text x="267.0" y="228" text-anchor="middle" font-size="10">08-15</text><text x="267.0" y="64.4" text-anchor="middle" font-size="10">1532</text>
<circle cx="279.1" cy="133.7" r="3" fill="#2563eb"/><text x="279.1" y="228" text-anchor="middle" font-size="10">08-16</text><text x="279.1" y="125.7" text-anchor="middle" font-size="10">796</text>
<circle cx="291.3" cy="75.4" r="3" fill="#2563eb"/><text x="291.3" y="228" text-anchor="middle" font-size="10">08-17</text><text x="291.3" y="67.4" text-anchor="middle" font-size="10">1496</text>
<circle cx="303.5" cy="131.6" r="3" fill="#2563eb"/><text x="303.5" y="228" text-anchor="middle" font-size="10">08-18</text><text x="303.5" y="123.6" text-anchor="middle" font-size="10">821</text>
<circle cx="315.7" cy="137.1" r="3" fill="#2563eb"/><text x="315.7" y="228" text-anchor="middle" font-size="10">08-20</text><text x="315.7" y="129.1" text-anchor="middle" font-size="10">755</text>
<circle cx="327.8" cy="80.9" r="3" fill="#2563eb"/><text x="327.8" y="228" text-anchor="middle" font-size="10">08-21</text><text x="327.8" y="72.9" text-anchor="middle" font-size="10">1430</text>
<circle cx="340.0" cy="143.8" r="3" fill="#2563eb"/><text x="340.0" y="228" text-anchor="middle" font-size="10">08-22</text><text x="340.0" y="135.8" text-anchor="middle" font-size="10">675</text>
<circle cx="352.2" cy="97.7" r="3" fill="#2563eb"/><text x="352.2" y="228" text-anchor="middle" font-size="10">08-23</text><text x="352.2" y="89.7" text-anchor="middle" font-size="10">1228</text>
<circle cx="364.3" cy="62.5" r="3" fill="#2563eb"/><text x="364.3" y="228" text-anchor="middle" font-size="10">08-24</text><text x="364.3" y="54.5" text-anchor="middle" font-size="10">1651</text>
<circle cx="376.5" cy="87.1" r="3" fill="#2563eb"/><text x="376.5" y="228" text-anchor="middle" font-size="10">08-25</text><text x="376.5" y="79.1" text-anchor="middle" font-size="10">1356</text>
<circle cx="388.7" cy="148.4" r="3" fill="#2563eb"/><text x="388.7" y="228" text-anchor="middle" font-size="10">08-27</text><text x="388.7" y="140.4" text-anchor="middle" font-size="10">620</text>
<circle cx="400.9" cy="100.4" r="3" fill="#2563eb"/><text x="400.9" y="228" text-anchor="middle" font-size="10">08-28</text><text x="400.9" y="92.4" text-anchor="middle" font-size="10">1196</text>
<circle cx="413.0" cy="84.2" r="3" fill="#2563eb"/><text x="413.0" y="228" text-anchor="middle" font-size="10">08-29</text><text x="413.0" y="76.2" text-anchor="middle" font-size="10">1390</text>
<circle cx="425.2" cy="79.1" r="3" fill="#2563eb"/><text x="425.2" y="228" text-anchor="middle" font-size="10">08-29</text><text x="425.2" y="71.1" text-anchor="middle" font-size="10">1452</text>
<circle cx="437.4" cy="145.8" r="3" fill="#2563eb"/><text x="437.4" y="228" text-anchor="middle" font-size="10">08-30</text><text x="437.4" y="137.8" text-anchor="middle" font-size="10">651</text>
<circle cx="449.6" cy="82.0" r="3" fill="#2563eb"/><text x="449.6" y="228" text-anchor="middle" font-size="10">09-01</text><text x="449.6" y="74.0" text-anchor="middle" font-size="10">1417</text>
<circle cx="461.7" cy="147.9" r="3" fill="#2563eb"/><text x="461.7" y="228" text-anchor="middle" font-size="10">09-01</text><text x="461.7" y="139.9" text-anchor="middle" font-size="10">626</text>
<circle cx="473.9" cy="94.5" r="3" fill="#2563eb"/><text x="473.9" y="228" text-anchor="middle" font-size="10">09-02</text><text x="473.9" y="86.5" text-anchor="middle" font-size="10">1267</text>
<circle cx="486.1" cy="79.0" r="3" fill="#2563eb"/><text x="486.1" y="228" text-anchor="middle" font-size="10">09-03</text><text x="486.1" y="71.0" text-anchor="middle" font-size="10">1453</text>
<circle cx="498.3" cy="40.0" r="3" fill="#2563eb"/><text x="498.3" y="228" text-anchor="middle" font-size="10">09-04</text><text x="498.3" y="32.0" text-anchor="middle" font-size="10">1921</text>
<circle cx="510.4" cy="134.5" r="3" fill="#2563eb"/><text x="510.4" y="228" text-anchor="middle" font-size="10">09-05</text><text x="510.4" y="126.5" text-anchor="middle" font-size="10">787</text>
<circle cx="522.6" cy="89.5" r="3" fill="#2563eb"/><text x="522.6" y="228" text-anchor="middle" font-size="10">09-06</text><text x="522.6" y="81.5" text-anchor="middle" font-size="10">1327</text>
<circle cx="534.8" cy="137.3" r="3" fill="#2563eb"/><text x="534.8" y="228" text-anchor="middle" font-size="10">09-07</text><text x="534.8" y="129.3" text-anchor="middle" font-size="10">753</text>
<circle cx="547.0" cy="76.9" r="3" fill="#2563eb"/><text x="547.0" y="228" text-anchor="middle" font-size="10">09-08</text><text x="547.0" y="68.9" text-anchor="middle" font-size="10">1478</text>
<circle cx="559.1" cy="105.4" r="3" fill="#2563eb"/><text x="559.1" y="228" text-anchor="middle" font-size="10">09-09</text><text x="559.1" y="97.4" text-anchor="middle" font-size="10">1136</text>
<circle cx="571.3" cy="83.0" r="3" fill="#2563eb"/><text x="571.3" y="228" text-anchor="middle" font-size="10">09-10</text><text x="571.3" y="75.0" text-anchor="middle" font-size="10">1405</text>
<circle cx="583.5" cy="94.8" r="3" fill="#2563eb"/><text x="583.5" y="228" text-anchor="middle" font-size="10">09-11</text><text x="583.5" y="86.8" text-anchor="middle" font-size="10">1263</text>
<circle cx="595.7" cy="84.5" r="3" fill="#2563eb"/><text x="595.7" y="228" text-anchor="middle" font-size="10">09-12</text><text x="595.7" y="76.5" text-anchor="middle" font-size="10">1387</text>
<circle cx="607.8" cy="87.4" r="3" fill="#2563eb"/><text x="607.8" y="228" text-anchor="middle" font-size="10">09-13</text><text x="607.8" y="79.4" text-anchor="middle" font-size="10">1352</text>
<circle cx="620.0" cy="74.3" r="3" fill="#2563eb"/><text x="620.0" y="228" text-anchor="middle" font-size="10">09-14</text><text x="620.0" y="66.3" text-anchor="middle" font-size="10">1509</text>
</svg>