<svg xmlns="http://www.w3.org/2000/svg" width="640" height="240" font-family="sans-serif">
<text x="16" y="24" font-size="14" font-weight="bold">daily smoke — startup ms (hls_vod × hlsjs, unlimited)</text>
<polyline points="60.0,169.1 70.8,144.2 81.5,163.3 92.3,128.5 103.1,126.2 113.8,154.1 124.6,128.2 135.4,123.9 146.2,129.5 156.9,166.8 167.7,165.4 178.5,127.0 189.2,138.8 200.0,161.8 210.8,130.2 221.5,125.1 232.3,165.7 243.1,124.0 253.8,160.5 264.6,125.8 275.4,159.3 286.2,162.5 296.9,129.0 307.7,166.5 318.5,139.1 329.2,118.1 340.0,132.7 350.8,169.2 361.5,140.6 372.3,131.0 383.1,127.9 393.8,167.7 404.6,129.7 415.4,168.9 426.2,137.1 436.9,127.9 447.7,104.7 458.5,160.9 469.2,134.1 480.0,162.6 490.8,126.7 501.5,143.6 512.3,130.3 523.1,137.3 533.8,131.2 544.6,132.9 555.4,125.1 566.2,141.2 576.9,142.4 587.7,40.0 598.5,136.6 609.2,159.1 620.0,136.1" fill="none" stroke="#2563eb" stroke-width="2"/>
<circle cx="60.0" cy="169.1" r="3" fill="#2563eb"/><text x="60.0" y="228" text-anchor="middle" font-size="10">08-02</text><text x="60.0" y="161.1" text-anchor="middle" font-size="10">623</text>
<circle cx="70.8" cy="144.2" r="3" fill="#2563eb"/><text x="70.8" y="228" text-anchor="middle" font-size="10">08-02</text><text x="70.8" y="136.2" text-anchor="middle" font-size="10">1125</text>
<circle cx="81.5" cy="163.3" r="3" fill="#2563eb"/><text x="81.5" y="228" text-anchor="middle" font-size="10">08-03</text><text x="81.5" y="155.3" text-anchor="middle" font-size="10">739</text>
<circle cx="92.3" cy="128.5" r="3" fill="#2563eb"/><text x="92.3" y="228" text-anchor="middle" font-size="10">08-03</text><text x="92.3" y="120.5" text-anchor="middle" font-size="10">1440</text>
<circle cx="103.1" cy="126.2" r="3" fill="#2563eb"/><text x="103.1" y="228" text-anchor="middle" font-size="10">08-03</text><text x="103.1" y="118.2" text-anchor="middle" font-size="10">1488</text>
<circle cx="113.8" cy="154.1" r="3" fill="#2563eb"/><text x="113.8" y="228" text-anchor="middle" font-size="10">08-04</text><text x="113.8" y="146.1" text-anchor="middle" font-size="10">925</text>
<circle cx="124.6" cy="128.2" r="3" fill="#2563eb"/><text x="124.6" y="228" text-anchor="middle" font-size="10">08-05</text><text x="124.6" y="120.2" text-anchor="middle" font-size="10">1446</text>
<circle cx="135.4" cy="123.9" r="3" fill="#2563eb"/><text x="135.4" y="228" text-anchor="middle" font-size="10">08-07</text><text x="135.4" y="115.9" text-anchor="middle" font-size="10">1534</text>
<circle cx="146.2" cy="129.5" r="3" fill="#2563eb"/><text x="146.2" y="228" text-anchor="middle" font-size="10">08-07</text><text x="146.2" y="121.5" text-anchor="middle" font-size="10">1420</text>
<circle cx="156.9" cy="166.8" r="3" fill="#2563eb"/><text x="156.9" y="228" text-anchor="middle" font-size="10">08-08</text><text x="156.9" y="158.8" text-anchor="middle" font-size="10">669</text>
<circle cx="167.7" cy="165.4" r="3" fill="#2563eb"/><text x="167.7" y="228" text-anchor="middle" font-size="10">08-09</text><text x="167.7" y="157.4" text-anchor="middle" font-size="10">697</text>
<circle cx="178.5" cy="127.0" r="3" fill="#2563eb"/><text x="178.5" y="228" text-anchor="middle" font-size="10">08-10</text><text x="178.5" y="119.0" text-anchor="middle" font-size="10">1471</text>
<circle cx="189.2" cy="138.8" r="3" fill="#2563eb"/><text x="189.2" y="228" text-anchor="middle" font-size="10">08-10</text><text x="189.2" y="130.8" text-anchor="middle" font-size="10">1233</text>
<circle cx="200.0" cy="161.8" r="3" fill="#2563eb"/><text x="200.0" y="228" text-anchor="middle" font-size="10">08-11</text><text x="200.0" y="153.8" text-anchor="middle" font-size="10">769</text>
<circle cx="210.8" cy="130.2" r="3" fill="#2563eb"/><text x="210.8" y="228" text-anchor="middle" font-size="10">08-12</text><text x="210.8" y="122.2" text-anchor="middle" font-size="10">1406</text>
<circle cx="221.5" cy="125.1" r="3" fill="#2563eb"/><text x="221.5" y="228" text-anchor="middle" font-size="10">08-13</text><text x="221.5" y="117.1" text-anchor="middle" font-size="10">1509</text>
<circle cx="232.3" cy="165.7" r="3" fill="#2563eb"/><text x="232.3" y="228" text-anchor="middle" font-size="10">08-14</text><text x="232.3" y="157.7" text-anchor="middle" font-size="10">691</text>
<circle cx="243.1" cy="124.0" r="3" fill="#2563eb"/><text x="243.1" y="228" text-anchor="middle" font-size="10">08-15</text><text x="243.1" y="116.0" text-anchor="middle" font-size="10">1532</text>
<circle cx="253.8" cy="160.5" r="3" fill="#2563eb"/><text x="253.8" y="228" text-anchor="middle" font-size="10">08-16</text><text x="253.8" y="152.5" text-anchor="middle" font-size="10">796</text>
<circle cx="264.6" cy="125.8" r="3" fill="#2563eb"/><text x="264.6" y="228" text-anchor="middle" font-size="10">08-17</text><text x="264.6" y="117.8" text-anchor="middle" font-size="10">1496</text>
<circle cx="275.4" cy="159.3" r="3" fill="#2563eb"/><text x="275.4" y="228" text-anchor="middle" font-size="10">08-18</text><text x="275.4" y="151.3" text-anchor="middle" font-size="10">821</text>
<circle cx="286.2" cy="162.5" r="3" fill="#2563eb"/><text x="286.2" y="228" text-anchor="middle" font-size="10">08-20</text><text x="286.2" y="154.5" text-anchor="middle" font-size="10">755</text>
<circle cx="296.9" cy="129.0" r="3" fill="#2563eb"/><text x="296.9" y="228" text-anchor="middle" font-size="10">08-21</text><text x="296.9" y="121.0" text-anchor="middle" font-size="10">1430</text>
<circle cx="307.7" cy="166.5" r="3" fill="#2563eb"/><text x="307.7" y="228" text-anchor="middle" font-size="10">08-22</text><text x="307.7" y="158.5" text-anchor="middle" font-size="10">675</text>
<circle cx="318.5" cy="139.1" r="3" fill="#2563eb"/><text x="318.5" y="228" text-anchor="middle" font-size="10">08-23</text><text x="318.5" y="131.1" text-anchor="middle" font-size="10">1228</text>
<circle cx="329.2" cy="118.1" r="3" fill="#2563eb"/><text x="329.2" y="228" text-anchor="middle" font-size="10">08-24</text><text x="329.2" y="110.1" text-anchor="middle" font-size="10">1651</text>
<circle cx="340.0" cy="132.7" r="3" fill="#2563eb"/><text x="340.0" y="228" text-anchor="middle" font-size="10">08-25</text><text x="340.0" y="124.7" text-anchor="middle" font-size="10">1356</text>
<circle cx="350.8" cy="169.2" r="3" fill="#2563eb"/><text x="350.8" y="228" text-anchor="middle" font-size="10">08-27</text><text x="350.8" y="161.2" text-anchor="middle" font-size="10">620</text>
<circle cx="361.5" cy="140.6" r="3" fill="#2563eb"/><text x="361.5" y="228" text-anchor="middle" font-size="10">08-28</text><text x="361.5" y="132.6" text-anchor="middle" font-size="10">1196</text>
<circle cx="372.3" cy="131.0" r="3" fill="#2563eb"/><text x="372.3" y="228" text-anchor="middle" font-size="10">08-29</text><text x="372.3" y="123.0" text-anchor="middle" font-size="10">1390</text>
<circle cx="383.1" cy="127.9" r="3" fill="#2563eb"/><text x="383.1" y="228" text-anchor="middle" font-size="10">08-29</text><text x="383.1" y="119.9" text-anchor="middle" font-size="10">1452</text>
<circle cx="393.8" cy="167.7" r="3" fill="#2563eb"/><text x="393.8" y="228" text-anchor="middle" font-size="10">08-30</text><text x="393.8" y="159.7" text-anchor="middle" font-size="10">651</text>
<circle cx="404.6" cy="129.7" r="3" fill="#2563eb"/><text x="404.6" y="228" text-anchor="middle" font-size="10">09-01</text><text x="404.6" y="121.7" text-anchor="middle" font-size="10">1417</text>
<circle cx="415.4" cy="168.9" r="3" fill="#2563eb"/><text x="415.4" y="228" text-anchor="middle" font-size="10">09-01</text><text x="415.4" y="160.9" text-anchor="middle" font-size="10">626</text>
<circle cx="426.2" cy="137.1" r="3" fill="#2563eb"/><text x="426.2" y="228" text-anchor="middle" font-size="10">09-02</text><text x="426.2" y="129.1" text-anchor="middle" font-size="10">1267</text>
<circle cx="436.9" cy="127.9" r="3" fill="#2563eb"/><text x="436.9" y="228" text-anchor="middle" font-size="10">09-03</text><text x="436.9" y="119.9" text-anchor="middle" font-size="10">1453</text>
<circle cx="447.7" cy="104.7" r="3" fill="#2563eb"/><text x="447.7" y="228" text-anchor="middle" font-size="10">09-04</text><text x="447.7" y="96.7" text-anchor="middle" font-size="10">1921</text>
<circle cx="458.5" cy="160.9" r="3" fill="#2563eb"/><text x="458.5" y="228" text-anchor="middle" font-size="10">09-05</text><text x="458.5" y="152.9" text-anchor="middle" font-size="10">787</text>
<circle cx="469.2" cy="134.1" r="3" fill="#2563eb"/><text x="469.2" y="228" text-anchor="middle" font-size="10">09-06</text><text x="469.2" y="126.1" text-anchor="middle" font-size="10">1327</text>
<circle cx="480.0" cy="162.6" r="3" fill="#2563eb"/><text x="480.0" y="228" text-anchor="middle" font-size="10">09-07</text><text x="480.0" y="154.6" text-anchor="middle" font-size="10">753</text>
<circle cx="490.8" cy="126.7" r="3" fill="#2563eb"/><text x="490.8" y="228" text-anchor="middle" font-size="10">09-08</text><text x="490.8" y="118.7" text-anchor="middle" font-size="10">1478</text>
<circle cx="501.5" cy="143.6" r="3" fill="#2563eb"/><text x="501.5" y="228" text-anchor="middle" font-size="10">09-09</text><text x="501.5" y="135.6" text-anchor="middle" font-size="10">1136</text>
<circle cx="512.3" cy="130.3" r="3" fill="#2563eb"/><text x="512.3" y="228" text-anchor="middle" font-size="10">09-10</text><text x="512.3" y="122.3" text-anchor="middle" font-size="10">1405</text>
<circle cx="523.1" cy="137.3" r="3" fill="#2563eb"/><text x="523.1" y="228" text-anchor="middle" font-size="10">09-11</text><text x="523.1" y="129.3" text-anchor="middle" font-size="10">1263</text>
<circle cx="533.8" cy="131.2" r="3" fill="#2563eb"/><text x="533.8" y="228" text-anchor="middle" font-size="10">09-12</text><text x="533.8" y="123.2" text-anchor="middle" font-size="10">1387</text>
<circle cx="544.6" cy="132.9" r="3" fill="#2563eb"/><text x="544.6" y="228" text-anchor="middle" font-size="10">09-13</text><text x="544.6" y="124.9" text-anchor="middle" font-size="10">1352</text>
<circle cx="555.4" cy="125.1" r="3" fill="#2563eb"/><text x="555.4" y="228" text-anchor="middle" font-size="10">09-14</text><text x="555.4" y="117.1" text-anchor="middle" font-size="10">1509</text>
<circle cx="566.2" cy="141.2" r="3" fill="#2563eb"/><text x="566.2" y="228" text-anchor="middle" font-size="10">09-15</text><text x="566.2" y="133.2" text-anchor="middle" font-size="10">1185</text>
<circle cx="576.9" cy="142.4" r="3" fill="#2563eb"/><text x="576.9" y="228" text-anchor="middle" font-size="10">09-16</text><text x="576.9" y="134.4" text-anchor="middle" font-size="10">1161</text>
<circle cx="587.7" cy="40.0" r="3" fill="#2563eb"/><text x="587.7" y="228" text-anchor="middle" font-size="10">09-17</text><text x="587.7" y="32.0" text-anchor="middle" font-size="10">3224</text>
<circle cx="598.5" cy="136.6" r="3" fill="#2563eb"/><text x="598.5" y="228" text-anchor="middle" font-size="10">09-18</text><text x="598.5" y="128.6" text-anchor="middle" font-size="10">1277</text>
<circle cx="609.2" cy="159.1" r="3" fill="#2563eb"/><text x="609.2" y="228" text-anchor="middle" font-size="10">09-19</text><text x="609.2" y="151.1" text-anchor="middle" font-size="10">824</text>
<circle cx="620.0" cy="136.1" r="3" fill="#2563eb"/><text x="620.0" y="228" text-anchor="middle" font-size="10">09-20</text><text x="620.0" y="128.1" text-anchor="middle" font-size="10">1288</text>
</svg>