<svg xmlns="http://www.w3.org/2000/svg" width="640" height="240" font-family="sans-serif">
<text x="16" y="24" font-size="14" font-weight="bold">daily smoke — startup ms (hls_vod × hlsjs, unlimited)</text>
<polyline points="60.0,169.1 68.6,144.2 77.2,163.3 85.8,128.5 94.5,126.2 103.1,154.1 111.7,128.2 120.3,123.9 128.9,129.5 137.5,166.8 146.2,165.4 154.8,127.0 163.4,138.8 172.0,161.8 180.6,130.2 189.2,125.1 197.8,165.7 206.5,124.0 215.1,160.5 223.7,125.8 232.3,159.3 240.9,162.5 249.5,129.0 258.2,166.5 266.8,139.1 275.4,118.1 284.0,132.7 292.6,169.2 301.2,140.6 309.8,131.0 318.5,127.9 327.1,167.7 335.7,129.7 344.3,168.9 352.9,137.1 361.5,127.9 370.2,104.7 378.8,160.9 387.4,134.1 396.0,162.6 404.6,126.7 413.2,143.6 421.8,130.3 430.5,137.3 439.1,131.2 447.7,132.9 456.3,125.1 464.9,141.2 473.5,142.4 482.2,40.0 490.8,136.6 499.4,159.1 508.0,136.1 516.6,132.8 525.2,129.0 533.8,137.3 542.5,143.4 551.1,160.5 559.7,160.2 568.3,135.2 576.9,126.2 585.5,132.8 594.2,123.9 602.8,133.0 611.4,130.5 620.0,143.7" fill="none" stroke="#2563eb" stroke-width="2"/>
<circle cx="60.0" cy="169.1" r="3" fill="#2563eb"/><text x="60.0" y="228" text-anchor="middle" font-size="10">08-02</text><text x="60.0" y="161.1" text-anchor="middle" font-size="10">623</text>
<circle cx="68.6" cy="144.2" r="3" fill="#2563eb"/><text x="68.6" y="228" text-anchor="middle" font-size="10">08-02</text><text x="68.6" y="136.2" text-anchor="middle" font-size="10">1125</text>
<circle cx="77.2" cy="163.3" r="3" fill="#2563eb"/><text x="77.2" y="228" text-anchor="middle" font-size="10">08-03</text><text x="77.2" y="155.3" text-anchor="middle" font-size="10">739</text>
<circle cx="85.8" cy="128.5" r="3" fill="#2563eb"/><text x="85.8" y="228" text-anchor="middle" font-size="10">08-03</text><text x="85.8" y="120.5" text-anchor="middle" font-size="10">1440</text>
<circle cx="94.5" cy="126.2" r="3" fill="#2563eb"/><text x="94.5" y="228" text-anchor="middle" font-size="10">08-03</text><text x="94.5" y="118.2" text-anchor="middle" font-size="10">1488</text>
<circle cx="103.1" cy="154.1" r="3" fill="#2563eb"/><text x="103.1" y="228" text-anchor="middle" font-size="10">08-04</text><text x="103.1" y="146.1" text-anchor="middle" font-size="10">925</text>
<circle cx="111.7" cy="128.2" r="3" fill="#2563eb"/><text x="111.7" y="228" text-anchor="middle" font-size="10">08-05</text><text x="111.7" y="120.2" text-anchor="middle" font-size="10">1446</text>
<circle cx="120.3" cy="123.9" r="3" fill="#2563eb"/><text x="120.3" y="228" text-anchor="middle" font-size="10">08-07</text><text x="120.3" y="115.9" text-anchor="middle" font-size="10">1534</text>
<circle cx="128.9" cy="129.5" r="3" fill="#2563eb"/><text x="128.9" y="228" text-anchor="middle" font-size="10">08-07</text><text x="128.9" y="121.5" text-anchor="middle" font-size="10">1420</text>
<circle cx="137.5" cy="166.8" r="3" fill="#2563eb"/><text x="137.5" y="228" text-anchor="middle" font-size="10">08-08</text><text x="137.5" y="158.8" text-anchor="middle" font-size="10">669</text>
<circle cx="146.2" cy="165.4" r="3" fill="#2563eb"/><text x="146.2" y="228" text-anchor="middle" font-size="10">08-09</text><text x="146.2" y="157.4" text-anchor="middle" font-size="10">697</text>
<circle cx="154.8" cy="127.0" r="3" fill="#2563eb"/><text x="154.8" y="228" text-anchor="middle" font-size="10">08-10</text><text x="154.8" y="119.0" text-anchor="middle" font-size="10">1471</text>
<circle cx="163.4" cy="138.8" r="3" fill="#2563eb"/><text x="163.4" y="228" text-anchor="middle" font-size="10">08-10</text><text x="163.4" y="130.8" text-anchor="middle" font-size="10">1233</text>
<circle cx="172.0" cy="161.8" r="3" fill="#2563eb"/><text x="172.0" y="228" text-anchor="middle" font-size="10">08-11</text><text x="172.0" y="153.8" text-anchor="middle" font-size="10">769</text>
<circle cx="180.6" cy="130.2" r="3" fill="#2563eb"/><text x="180.6" y="228" text-anchor="middle" font-size="10">08-12</text><text x="180.6" y="122.2" text-anchor="middle" font-size="10">1406</text>
<circle cx="189.2" cy="125.1" r="3" fill="#2563eb"/><text x="189.2" y="228" text-anchor="middle" font-size="10">08-13</text><text x="189.2" y="117.1" text-anchor="middle" font-size="10">1509</text>
<circle cx="197.8" cy="165.7" r="3" fill="#2563eb"/><text x="197.8" y="228" text-anchor="middle" font-size="10">08-14</text><text x="197.8" y="157.7" text-anchor="middle" font-size="10">691</text>
<circle cx="206.5" cy="124.0" r="3" fill="#2563eb"/><text x="206.5" y="228" text-anchor="middle" font-size="10">08-15</text><text x="206.5" y="116.0" text-anchor="middle" font-size="10">1532</text>
<circle cx="215.1" cy="160.5" r="3" fill="#2563eb"/><text x="215.1" y="228" text-anchor="middle" font-size="10">08-16</text><text x="215.1" y="152.5" text-anchor="middle" font-size="10">796</text>
<circle cx="223.7" cy="125.8" r="3" fill="#2563eb"/><text x="223.7" y="228" text-anchor="middle" font-size="10">08-17</text><text x="223.7" y="117.8" text-anchor="middle" font-size="10">1496</text>
<circle cx="232.3" cy="159.3" r="3" fill="#2563eb"/><text x="232.3" y="228" text-anchor="middle" font-size="10">08-18</text><text x="232.3" y="151.3" text-anchor="middle" font-size="10">821</text>
<circle cx="240.9" cy="162.5" r="3" fill="#2563eb"/><text x="240.9" y="228" text-anchor="middle" font-size="10">08-20</text><text x="240.9" y="154.5" text-anchor="middle" font-size="10">755</text>
<circle cx="249.5" cy="129.0" r="3" fill="#2563eb"/><text x="249.5" y="228" text-anchor="middle" font-size="10">08-21</text><text x="249.5" y="121.0" text-anchor="middle" font-size="10">1430</text>
<circle cx="258.2" cy="166.5" r="3" fill="#2563eb"/><text x="258.2" y="228" text-anchor="middle" font-size="10">08-22</text><text x="258.2" y="158.5" text-anchor="middle" font-size="10">675</text>
<circle cx="266.8" cy="139.1" r="3" fill="#2563eb"/><text x="266.8" y="228" text-anchor="middle" font-size="10">08-23</text><text x="266.8" y="131.1" text-anchor="middle" font-size="10">1228</text>
<circle cx="275.4" cy="118.1" r="3" fill="#2563eb"/><text x="275.4" y="228" text-anchor="middle" font-size="10">08-24</text><text x="275.4" y="110.1" text-anchor="middle" font-size="10">1651</text>
<circle cx="284.0" cy="132.7" r="3" fill="#2563eb"/><text x="284.0" y="228" text-anchor="middle" font-size="10">08-25</text><text x="284.0" y="124.7" text-anchor="middle" font-size="10">1356</text>
<circle cx="292.6" cy="169.2" r="3" fill="#2563eb"/><text x="292.6" y="228" text-anchor="middle" font-size="10">08-27</text><text x="292.6" y="161.2" text-anchor="middle" font-size="10">620</text>
<circle cx="301.2" cy="140.6" r="3" fill="#2563eb"/><text x="301.2" y="228" text-anchor="middle" font-size="10">08-28</text><text x="301.2" y="132.6" text-anchor="middle" font-size="10">1196</text>
<circle cx="309.8" cy="131.0" r="3" fill="#2563eb"/><text x="309.8" y="228" text-anchor="middle" font-size="10">08-29</text><text x="309.8" y="123.0" text-anchor="middle" font-size="10">1390</text>
<circle cx="318.5" cy="127.9" r="3" fill="#2563eb"/><text x="318.5" y="228" text-anchor="middle" font-size="10">08-29</text><text x="318.5" y="119.9" text-anchor="middle" font-size="10">1452</text>
<circle cx="327.1" cy="167.7" r="3" fill="#2563eb"/><text x="327.1" y="228" text-anchor="middle" font-size="10">08-30</text><text x="327.1" y="159.7" text-anchor="middle" font-size="10">651</text>
<circle cx="335.7" cy="129.7" r="3" fill="#2563eb"/><text x="335.7" y="228" text-anchor="middle" font-size="10">09-01</text><text x="335.7" y="121.7" text-anchor="middle" font-size="10">1417</text>
<circle cx="344.3" cy="168.9" r="3" fill="#2563eb"/><text x="344.3" y="228" text-anchor="middle" font-size="10">09-01</text><text x="344.3" y="160.9" text-anchor="middle" font-size="10">626</text>
<circle cx="352.9" cy="137.1" r="3" fill="#2563eb"/><text x="352.9" y="228" text-anchor="middle" font-size="10">09-02</text><text x="352.9" y="129.1" text-anchor="middle" font-size="10">1267</text>
<circle cx="361.5" cy="127.9" r="3" fill="#2563eb"/><text x="361.5" y="228" text-anchor="middle" font-size="10">09-03</text><text x="361.5" y="119.9" text-anchor="middle" font-size="10">1453</text>
<circle cx="370.2" cy="104.7" r="3" fill="#2563eb"/><text x="370.2" y="228" text-anchor="middle" font-size="10">09-04</text><text x="370.2" y="96.7" text-anchor="middle" font-size="10">1921</text>
<circle cx="378.8" cy="160.9" r="3" fill="#2563eb"/><text x="378.8" y="228" text-anchor="middle" font-size="10">09-05</text><text x="378.8" y="152.9" text-anchor="middle" font-size="10">787</text>
<circle cx="387.4" cy="134.1" r="3" fill="#2563eb"/><text x="387.4" y="228" text-anchor="middle" font-size="10">09-06</text><text x="387.4" y="126.1" text-anchor="middle" font-size="10">1327</text>
<circle cx="396.0" cy="162.6" r="3" fill="#2563eb"/><text x="396.0" y="228" text-anchor="middle" font-size="10">09-07</text><text x="396.0" y="154.6" text-anchor="middle" font-size="10">753</text>
<circle cx="404.6" cy="126.7" r="3" fill="#2563eb"/><text x="404.6" y="228" text-anchor="middle" font-size="10">09-08</text><text x="404.6" y="118.7" text-anchor="middle" font-size="10">1478</text>
<circle cx="413.2" cy="143.6" r="3" fill="#2563eb"/><text x="413.2" y="228" text-anchor="middle" font-size="10">09-09</text><text x="413.2" y="135.6" text-anchor="middle" font-size="10">1136</text>
<circle cx="421.8" cy="130.3" r="3" fill="#2563eb"/><text x="421.8" y="228" text-anchor="middle" font-size="10">09-10</text><text x="421.8" y="122.3" text-anchor="middle" font-size="10">1405</text>
<circle cx="430.5" cy="137.3" r="3" fill="#2563eb"/><text x="430.5" y="228" text-anchor="middle" font-size="10">09-11</text><text x="430.5" y="129.3" text-anchor="middle" font-size="10">1263</text>
<circle cx="439.1" cy="131.2" r="3" fill="#2563eb"/><text x="439.1" y="228" text-anchor="middle" font-size="10">09-12</text><text x="439.1" y="123.2" text-anchor="middle" font-size="10">1387</text>
<circle cx="447.7" cy="132.9" r="3" fill="#2563eb"/><text x="447.7" y="228" text-anchor="middle" font-size="10">09-13</text><text x="447.7" y="124.9" text-anchor="middle" font-size="10">1352</text>
<circle cx="456.3" cy="125.1" r="3" fill="#2563eb"/><text x="456.3" y="228" text-anchor="middle" font-size="10">09-14</text><text x="456.3" y="117.1" text-anchor="middle" font-size="10">1509</text>
<circle cx="464.9" cy="141.2" r="3" fill="#2563eb"/><text x="464.9" y="228" text-anchor="middle" font-size="10">09-15</text><text x="464.9" y="133.2" text-anchor="middle" font-size="10">1185</text>
<circle cx="473.5" cy="142.4" r="3" fill="#2563eb"/><text x="473.5" y="228" text-anchor="middle" font-size="10">09-16</text><text x="473.5" y="134.4" text-anchor="middle" font-size="10">1161</text>
<circle cx="482.2" cy="40.0" r="3" fill="#2563eb"/><text x="482.2" y="228" text-anchor="middle" font-size="10">09-17</text><text x="482.2" y="32.0" text-anchor="middle" font-size="10">3224</text>
<circle cx="490.8" cy="136.6" r="3" fill="#2563eb"/><text x="490.8" y="228" text-anchor="middle" font-size="10">09-18</text><text x="490.8" y="128.6" text-anchor="middle" font-size="10">1277</text>
<circle cx="499.4" cy="159.1" r="3" fill="#2563eb"/><text x="499.4" y="228" text-anchor="middle" font-size="10">09-19</text><text x="499.4" y="151.1" text-anchor="middle" font-size="10">824</text>
<circle cx="508.0" cy="136.1" r="3" fill="#2563eb"/><text x="508.0" y="228" text-anchor="middle" font-size="10">09-20</text><text x="508.0" y="128.1" text-anchor="middle" font-size="10">1288</text>
<circle cx="516.6" cy="132.8" r="3" fill="#2563eb"/><text x="516.6" y="228" text-anchor="middle" font-size="10">09-21</text><text x="516.6" y="124.8" text-anchor="middle" font-size="10">1354</text>
<circle cx="525.2" cy="129.0" r="3" fill="#2563eb"/><text x="525.2" y="228" text-anchor="middle" font-size="10">09-22</text><text x="525.2" y="121.0" text-anchor="middle" font-size="10">1431</text>
<circle cx="533.8" cy="137.3" r="3" fill="#2563eb"/><text x="533.8" y="228" text-anchor="middle" font-size="10">09-23</text><text x="533.8" y="129.3" text-anchor="middle" font-size="10">1264</text>
<circle cx="542.5" cy="143.4" r="3" fill="#2563eb"/><text x="542.5" y="228" text-anchor="middle" font-size="10">09-24</text><text x="542.5" y="135.4" text-anchor="middle" font-size="10">1141</text>
<circle cx="551.1" cy="160.5" r="3" fill="#2563eb"/><text x="551.1" y="228" text-anchor="middle" font-size="10">09-25</text><text x="551.1" y="152.5" text-anchor="middle" font-size="10">796</text>
<circle cx="559.7" cy="160.2" r="3" fill="#2563eb"/><text x="559.7" y="228" text-anchor="middle" font-size="10">09-26</text><text x="559.7" y="152.2" text-anchor="middle" font-size="10">802</text>
<circle cx="568.3" cy="135.2" r="3" fill="#2563eb"/><text x="568.3" y="228" text-anchor="middle" font-size="10">09-27</text><text x="568.3" y="127.2" text-anchor="middle" font-size="10">1305</text>
<circle cx="576.9" cy="126.2" r="3" fill="#2563eb"/><text x="576.9" y="228" text-anchor="middle" font-size="10">09-29</text><text x="576.9" y="118.2" text-anchor="middle" font-size="10">1487</text>
<circle cx="585.5" cy="132.8" r="3" fill="#2563eb"/><text x="585.5" y="228" text-anchor="middle" font-size="10">09-30</text><text x="585.5" y="124.8" text-anchor="middle" font-size="10">1354</text>
<circle cx="594.2" cy="123.9" r="3" fill="#2563eb"/><text x="594.2" y="228" text-anchor="middle" font-size="10">10-01</text><text x="594.2" y="115.9" text-anchor="middle" font-size="10">1534</text>
<circle cx="602.8" cy="133.0" r="3" fill="#2563eb"/><text x="602.8" y="228" text-anchor="middle" font-size="10">10-02</text><text x="602.8" y="125.0" text-anchor="middle" font-size="10">1350</text>
<circle cx="611.4" cy="130.5" r="3" fill="#2563eb"/><text x="611.4" y="228" text-anchor="middle" font-size="10">10-03</text><text x="611.4" y="122.5" text-anchor="middle" font-size="10">1400</text>
<circle cx="620.0" cy="143.7" r="3" fill="#2563eb"/><text x="620.0" y="228" text-anchor="middle" font-size="10">10-03</text><text x="620.0" y="135.7" text-anchor="middle" font-size="10">1134</text>
</svg>