<svg xmlns="http://www.w3.org/2000/svg" width="640" height="240" font-family="sans-serif">
<text x="16" y="24" font-size="14" font-weight="bold">daily smoke — startup ms (hls_vod × hlsjs, unlimited)</text>
<polyline points="60.0,135.0 110.9,82.7 161.8,122.9 212.7,49.8 263.6,44.8 314.5,103.5 365.5,49.2 416.4,40.0 467.3,51.9 518.2,130.2 569.1,127.3 620.0,46.6" fill="none" stroke="#2563eb" stroke-width="2"/>
<circle cx="60.0" cy="135.0" r="3" fill="#2563eb"/><text x="60.0" y="228" text-anchor="middle" font-size="10">08-02</text><text x="60.0" y="127.0" text-anchor="middle" font-size="10">623</text>
<circle cx="110.9" cy="82.7" r="3" fill="#2563eb"/><text x="110.9" y="228" text-anchor="middle" font-size="10">08-02</text><text x="110.9" y="74.7" text-anchor="middle" font-size="10">1125</text>
<circle cx="161.8" cy="122.9" r="3" fill="#2563eb"/><text x="161.8" y="228" text-anchor="middle" font-size="10">08-03</text><text x="161.8" y="114.9" text-anchor="middle" font-size="10">739</text>
<circle cx="212.7" cy="49.8" r="3" fill="#2563eb"/><text x="212.7" y="228" text-anchor="middle" font-size="10">08-03</text><text x="212.7" y="41.8" text-anchor="middle" font-size="10">1440</text>
<circle cx="263.6" cy="44.8" r="3" fill="#2563eb"/><text x="263.6" y="228" text-anchor="middle" font-size="10">08-03</text><text x="263.6" y="36.8" text-anchor="middle" font-size="10">1488</text>
<circle cx="314.5" cy="103.5" r="3" fill="#2563eb"/><text x="314.5" y="228" text-anchor="middle" font-size="10">08-04</text><text x="314.5" y="95.5" text-anchor="middle" font-size="10">925</text>
<circle cx="365.5" cy="49.2" r="3" fill="#2563eb"/><text x="365.5" y="228" text-anchor="middle" font-size="10">08-05</text><text x="365.5" y="41.2" text-anchor="middle" font-size="10">1446</text>
<circle cx="416.4" cy="40.0" r="3" fill="#2563eb"/><text x="416.4" y="228" text-anchor="middle" font-size="10">08-07</text><text x="416.4" y="32.0" text-anchor="middle" font-size="10">1534</text>
<circle cx="467.3" cy="51.9" r="3" fill="#2563eb"/><text x="467.3" y="228" text-anchor="middle" font-size="10">08-07</text><text x="467.3" y="43.9" text-anchor="middle" font-size="10">1420</text>
<circle cx="518.2" cy="130.2" r="3" fill="#2563eb"/><text x="518.2" y="228" text-anchor="middle" font-size="10">08-08</text><text x="518.2" y="122.2" text-anchor="middle" font-size="10">669</text>
<circle cx="569.1" cy="127.3" r="3" fill="#2563eb"/><text x="569.1" y="228" text-anchor="middle" font-size="10">08-09</text><text x="569.1" y="119.3" text-anchor="middle" font-size="10">697</text>
<circle cx="620.0" cy="46.6" r="3" fill="#2563eb"/><text x="620.0" y="228" text-anchor="middle" font-size="10">08-10</text><text x="620.0" y="38.6" text-anchor="middle" font-size="10">1471</text>
</svg>