<svg xmlns="http://www.w3.org/2000/svg" width="640" height="240" font-family="sans-serif">
<text x="16" y="24" font-size="14" font-weight="bold">daily smoke — startup ms (hls_vod × hlsjs, unlimited)</text>
<polyline points="60.0,148.1 72.7,106.3 85.5,138.4 98.2,80.1 110.9,76.1 123.6,123.0 136.4,79.6 149.1,72.2 161.8,81.7 174.5,144.3 187.3,141.9 200.0,77.5 212.7,97.3 225.5,136.0 238.2,82.9 250.9,74.3 263.6,142.4 276.4,72.4 289.1,133.7 301.8,75.4 314.5,131.6 327.3,137.1 340.0,80.9 352.7,143.8 365.5,97.7 378.2,62.5 390.9,87.1 403.6,148.4 416.4,100.4 429.1,84.2 441.8,79.1 454.5,145.8 467.3,82.0 480.0,147.9 492.7,94.5 505.5,79.0 518.2,40.0 530.9,134.5 543.6,89.5 556.4,137.3 569.1,76.9 581.8,105.4 594.5,83.0 607.3,94.8 620.0,84.5" fill="none" stroke="#2563eb" stroke-width="2"/>
<circle cx="60.0" cy="148.1" r="3" fill="#2563eb"/><text x="60.0" y="228" text-anchor="middle" font-size="10">08-02</text><text x="60.0" y="140.1" text-anchor="middle" font-size="10">623</text>
<circle cx="72.7" cy="106.3" r="3" fill="#2563eb"/><text x="72.7" y="228" text-anchor="middle" font-size="10">08-02</text><text x="72.7" y="98.3" text-anchor="middle" font-size="10">1125</text>
<circle cx="85.5" cy="138.4" r="3" fill="#2563eb"/><text x="85.5" y="228" text-anchor="middle" font-size="10">08-03</text><text x="85.5" y="130.4" text-anchor="middle" font-size="10">739</text>
<circle cx="98.2" cy="80.1" r="3" fill="#2563eb"/><text x="98.2" y="228" text-anchor="middle" font-size="10">08-03</text><text x="98.2" y="72.1" text-anchor="middle" font-size="10">1440</text>
<circle cx="110.9" cy="76.1" r="3" fill="#2563eb"/><text x="110.9" y="228" text-anchor="middle" font-size="10">08-03</text><text x="110.9" y="68.1" text-anchor="middle" font-size="10">1488</text>
<circle cx="123.6" cy="123.0" r="3" fill="#2563eb"/><text x="123.6" y="228" text-anchor="middle" font-size="10">08-04</text><text x="123.6" y="115.0" text-anchor="middle" font-size="10">925</text>
<circle cx="136.4" cy="79.6" r="3" fill="#2563eb"/><text x="136.4" y="228" text-anchor="middle" font-size="10">08-05</text><text x="136.4" y="71.6" text-anchor="middle" font-size="10">1446</text>
<circle cx="149.1" cy="72.2" r="3" fill="#2563eb"/><text x="149.1" y="228" text-anchor="middle" font-size="10">08-07</text><text x="149.1" y="64.2" text-anchor="middle" font-size="10">1534</text>
<circle cx="161.8" cy="81.7" r="3" fill="#2563eb"/><text x="161.8" y="228" text-anchor="middle" font-size="10">08-07</text><text x="161.8" y="73.7" text-anchor="middle" font-size="10">1420</text>
<circle cx="174.5" cy="144.3" r="3" fill="#2563eb"/><text x="174.5" y="228" text-anchor="middle" font-size="10">08-08</text><text x="174.5" y="136.3" text-anchor="middle" font-size="10">669</text>
<circle cx="187.3" cy="141.9" r="3" fill="#2563eb"/><text x="187.3" y="228" text-anchor="middle" font-size="10">08-09</text><text x="187.3" y="133.9" text-anchor="middle" font-size="10">697</text>
<circle cx="200.0" cy="77.5" r="3" fill="#2563eb"/><text x="200.0" y="228" text-anchor="middle" font-size="10">08-10</text><text x="200.0" y="69.5" text-anchor="middle" font-size="10">1471</text>
<circle cx="212.7" cy="97.3" r="3" fill="#2563eb"/><text x="212.7" y="228" text-anchor="middle" font-size="10">08-10</text><text x="212.7" y="89.3" text-anchor="middle" font-size="10">1233</text>
<circle cx="225.5" cy="136.0" r="3" fill="#2563eb"/><text x="225.5" y="228" text-anchor="middle" font-size="10">08-11</text><text x="225.5" y="128.0" text-anchor="middle" font-size="10">769</text>
<circle cx="238.2" cy="82.9" r="3" fill="#2563eb"/><text x="238.2" y="228" text-anchor="middle" font-size="10">08-12</text><text x="238.2" y="74.9" text-anchor="middle" font-size="10">1406</text>
<circle cx="250.9" cy="74.3" r="3" fill="#2563eb"/><text x="250.9" y="228" text-anchor="middle" font-size="10">08-13</text><text x="250.9" y="66.3" text-anchor="middle" font-size="10">1509</text>
<circle cx="263.6" cy="142.4" r="3" fill="#2563eb"/><text x="263.6" y="228" text-anchor="middle" font-size="10">08-14</text><text x="263.6" y="134.4" text-anchor="middle" font-size="10">691</text>
<circle cx="276.4" cy="72.4" r="3" fill="#2563eb"/><text x="276.4" y="228" text-anchor="middle" font-size="10">08-15</text><text x="276.4" y="64.4" text-anchor="middle" font-size="10">1532</text>
<circle cx="289.1" cy="133.7" r="3" fill="#2563eb"/><text x="289.1" y="228" text-anchor="middle" font-size="10">08-16</text><text x="289.1" y="125.7" text-anchor="middle" font-size="10">796</text>
<circle cx="301.8" cy="75.4" r="3" fill="#2563eb"/><text x="301.8" y="228" text-anchor="middle" font-size="10">08-17</text><text x="301.8" y="67.4" text-anchor="middle" font-size="10">1496</text>
<circle cx="314.5" cy="131.6" r="3" fill="#2563eb"/><text x="314.5" y="228" text-anchor="middle" font-size="10">08-18</text><text x="314.5" y="123.6" text-anchor="middle" font-size="10">821</text>
<circle cx="327.3" cy="137.1" r="3" fill="#2563eb"/><text x="327.3" y="228" text-anchor="middle" font-size="10">08-20</text><text x="327.3" y="129.1" text-anchor="middle" font-size="10">755</text>
<circle cx="340.0" cy="80.9" r="3" fill="#2563eb"/><text x="340.0" y="228" text-anchor="middle" font-size="10">08-21</text><text x="340.0" y="72.9" text-anchor="middle" font-size="10">1430</text>
<circle cx="352.7" cy="143.8" r="3" fill="#2563eb"/><text x="352.7" y="228" text-anchor="middle" font-size="10">08-22</text><text x="352.7" y="135.8" text-anchor="middle" font-size="10">675</text>
<circle cx="365.5" cy="97.7" r="3" fill="#2563eb"/><text x="365.5" y="228" text-anchor="middle" font-size="10">08-23</text><text x="365.5" y="89.7" text-anchor="middle" font-size="10">1228</text>
<circle cx="378.2" cy="62.5" r="3" fill="#2563eb"/><text x="378.2" y="228" text-anchor="middle" font-size="10">08-24</text><text x="378.2" y="54.5" text-anchor="middle" font-size="10">1651</text>
<circle cx="390.9" cy="87.1" r="3" fill="#2563eb"/><text x="390.9" y="228" text-anchor="middle" font-size="10">08-25</text><text x="390.9" y="79.1" text-anchor="middle" font-size="10">1356</text>
<circle cx="403.6" cy="148.4" r="3" fill="#2563eb"/><text x="403.6" y="228" text-anchor="middle" font-size="10">08-27</text><text x="403.6" y="140.4" text-anchor="middle" font-size="10">620</text>
<circle cx="416.4" cy="100.4" r="3" fill="#2563eb"/><text x="416.4" y="228" text-anchor="middle" font-size="10">08-28</text><text x="416.4" y="92.4" text-anchor="middle" font-size="10">1196</text>
<circle cx="429.1" cy="84.2" r="3" fill="#2563eb"/><text x="429.1" y="228" text-anchor="middle" font-size="10">08-29</text><text x="429.1" y="76.2" text-anchor="middle" font-size="10">1390</text>
<circle cx="441.8" cy="79.1" r="3" fill="#2563eb"/><text x="441.8" y="228" text-anchor="middle" font-size="10">08-29</text><text x="441.8" y="71.1" text-anchor="middle" font-size="10">1452</text>
<circle cx="454.5" cy="145.8" r="3" fill="#2563eb"/><text x="454.5" y="228" text-anchor="middle" font-size="10">08-30</text><text x="454.5" y="137.8" text-anchor="middle" font-size="10">651</text>
<circle cx="467.3" cy="82.0" r="3" fill="#2563eb"/><text x="467.3" y="228" text-anchor="middle" font-size="10">09-01</text><text x="467.3" y="74.0" text-anchor="middle" font-size="10">1417</text>
<circle cx="480.0" cy="147.9" r="3" fill="#2563eb"/><text x="480.0" y="228" text-anchor="middle" font-size="10">09-01</text><text x="480.0" y="139.9" text-anchor="middle" font-size="10">626</text>
<circle cx="492.7" cy="94.5" r="3" fill="#2563eb"/><text x="492.7" y="228" text-anchor="middle" font-size="10">09-02</text><text x="492.7" y="86.5" text-anchor="middle" font-size="10">1267</text>
<circle cx="505.5" cy="79.0" r="3" fill="#2563eb"/><text x="505.5" y="228" text-anchor="middle" font-size="10">09-03</text><text x="505.5" y="71.0" text-anchor="middle" font-size="10">1453</text>
<circle cx="518.2" cy="40.0" r="3" fill="#2563eb"/><text x="518.2" y="228" text-anchor="middle" font-size="10">09-04</text><text x="518.2" y="32.0" text-anchor="middle" font-size="10">1921</text>
<circle cx="530.9" cy="134.5" r="3" fill="#2563eb"/><text x="530.9" y="228" text-anchor="middle" font-size="10">09-05</text><text x="530.9" y="126.5" text-anchor="middle" font-size="10">787</text>
<circle cx="543.6" cy="89.5" r="3" fill="#2563eb"/><text x="543.6" y="228" text-anchor="middle" font-size="10">09-06</text><text x="543.6" y="81.5" text-anchor="middle" font-size="10">1327</text>
<circle cx="556.4" cy="137.3" r="3" fill="#2563eb"/><text x="556.4" y="228" text-anchor="middle" font-size="10">09-07</text><text x="556.4" y="129.3" text-anchor="middle" font-size="10">753</text>
<circle cx="569.1" cy="76.9" r="3" fill="#2563eb"/><text x="569.1" y="228" text-anchor="middle" font-size="10">09-08</text><text x="569.1" y="68.9" text-anchor="middle" font-size="10">1478</text>
<circle cx="581.8" cy="105.4" r="3" fill="#2563eb"/><text x="581.8" y="228" text-anchor="middle" font-size="10">09-09</text><text x="581.8" y="97.4" text-anchor="middle" font-size="10">1136</text>
<circle cx="594.5" cy="83.0" r="3" fill="#2563eb"/><text x="594.5" y="228" text-anchor="middle" font-size="10">09-10</text><text x="594.5" y="75.0" text-anchor="middle" font-size="10">1405</text>
<circle cx="607.3" cy="94.8" r="3" fill="#2563eb"/><text x="607.3" y="228" text-anchor="middle" font-size="10">09-11</text><text x="607.3" y="86.8" text-anchor="middle" font-size="10">1263</text>
<circle cx="620.0" cy="84.5" r="3" fill="#2563eb"/><text x="620.0" y="228" text-anchor="middle" font-size="10">09-12</text><text x="620.0" y="76.5" text-anchor="middle" font-size="10">1387</text>
</svg>