<svg xmlns="http://www.w3.org/2000/svg" width="640" height="240" font-family="sans-serif">
<text x="16" y="24" font-size="14" font-weight="bold">daily smoke — startup ms (hls_vod × hlsjs, unlimited)</text>
<polyline points="60.0,169.1 68.5,144.2 77.0,163.3 85.5,128.5 93.9,126.2 102.4,154.1 110.9,128.2 119.4,123.9 127.9,129.5 136.4,166.8 144.8,165.4 153.3,127.0 161.8,138.8 170.3,161.8 178.8,130.2 187.3,125.1 195.8,165.7 204.2,124.0 212.7,160.5 221.2,125.8 229.7,159.3 238.2,162.5 246.7,129.0 255.2,166.5 263.6,139.1 272.1,118.1 280.6,132.7 289.1,169.2 297.6,140.6 306.1,131.0 314.5,127.9 323.0,167.7 331.5,129.7 340.0,168.9 348.5,137.1 357.0,127.9 365.5,104.7 373.9,160.9 382.4,134.1 390.9,162.6 399.4,126.7 407.9,143.6 416.4,130.3 424.8,137.3 433.3,131.2 441.8,132.9 450.3,125.1 458.8,141.2 467.3,142.4 475.8,40.0 484.2,136.6 492.7,159.1 501.2,136.1 509.7,132.8 518.2,129.0 526.7,137.3 535.2,143.4 543.6,160.5 552.1,160.2 560.6,135.2 569.1,126.2 577.6,132.8 586.1,123.9 594.5,133.0 603.0,130.5 611.5,143.7 620.0,101.3" fill="none" stroke="#2563eb" stroke-width="2"/>
<circle cx="60.0" cy="169.1" r="3" fill="#2563eb"/><text x="60.0" y="228" text-anchor="middle" font-size="10">08-02</text><text x="60.0" y="161.1" text-anchor="middle" font-size="10">623</text>
<circle cx="68.5" cy="144.2" r="3" fill="#2563eb"/><text x="68.5" y="228" text-anchor="middle" font-size="10">08-02</text><text x="68.5" y="136.2" text-anchor="middle" font-size="10">1125</text>
<circle cx="77.0" cy="163.3" r="3" fill="#2563eb"/><text x="77.0" y="228" text-anchor="middle" font-size="10">08-03</text><text x="77.0" y="155.3" text-anchor="middle" font-size="10">739</text>
<circle cx="85.5" cy="128.5" r="3" fill="#2563eb"/><text x="85.5" y="228" text-anchor="middle" font-size="10">08-03</text><text x="85.5" y="120.5" text-anchor="middle" font-size="10">1440</text>
<circle cx="93.9" cy="126.2" r="3" fill="#2563eb"/><text x="93.9" y="228" text-anchor="middle" font-size="10">08-03</text><text x="93.9" y="118.2" text-anchor="middle" font-size="10">1488</text>
<circle cx="102.4" cy="154.1" r="3" fill="#2563eb"/><text x="102.4" y="228" text-anchor="middle" font-size="10">08-04</text><text x="102.4" y="146.1" text-anchor="middle" font-size="10">925</text>
<circle cx="110.9" cy="128.2" r="3" fill="#2563eb"/><text x="110.9" y="228" text-anchor="middle" font-size="10">08-05</text><text x="110.9" y="120.2" text-anchor="middle" font-size="10">1446</text>
<circle cx="119.4" cy="123.9" r="3" fill="#2563eb"/><text x="119.4" y="228" text-anchor="middle" font-size="10">08-07</text><text x="119.4" y="115.9" text-anchor="middle" font-size="10">1534</text>
<circle cx="127.9" cy="129.5" r="3" fill="#2563eb"/><text x="127.9" y="228" text-anchor="middle" font-size="10">08-07</text><text x="127.9" y="121.5" text-anchor="middle" font-size="10">1420</text>
<circle cx="136.4" cy="166.8" r="3" fill="#2563eb"/><text x="136.4" y="228" text-anchor="middle" font-size="10">08-08</text><text x="136.4" y="158.8" text-anchor="middle" font-size="10">669</text>
<circle cx="144.8" cy="165.4" r="3" fill="#2563eb"/><text x="144.8" y="228" text-anchor="middle" font-size="10">08-09</text><text x="144.8" y="157.4" text-anchor="middle" font-size="10">697</text>
<circle cx="153.3" cy="127.0" r="3" fill="#2563eb"/><text x="153.3" y="228" text-anchor="middle" font-size="10">08-10</text><text x="153.3" y="119.0" text-anchor="middle" font-size="10">1471</text>
<circle cx="161.8" cy="138.8" r="3" fill="#2563eb"/><text x="161.8" y="228" text-anchor="middle" font-size="10">08-10</text><text x="161.8" y="130.8" text-anchor="middle" font-size="10">1233</text>
<circle cx="170.3" cy="161.8" r="3" fill="#2563eb"/><text x="170.3" y="228" text-anchor="middle" font-size="10">08-11</text><text x="170.3" y="153.8" text-anchor="middle" font-size="10">769</text>
<circle cx="178.8" cy="130.2" r="3" fill="#2563eb"/><text x="178.8" y="228" text-anchor="middle" font-size="10">08-12</text><text x="178.8" y="122.2" text-anchor="middle" font-size="10">1406</text>
<circle cx="187.3" cy="125.1" r="3" fill="#2563eb"/><text x="187.3" y="228" text-anchor="middle" font-size="10">08-13</text><text x="187.3" y="117.1" text-anchor="middle" font-size="10">1509</text>
<circle cx="195.8" cy="165.7" r="3" fill="#2563eb"/><text x="195.8" y="228" text-anchor="middle" font-size="10">08-14</text><text x="195.8" y="157.7" text-anchor="middle" font-size="10">691</text>
<circle cx="204.2" cy="124.0" r="3" fill="#2563eb"/><text x="204.2" y="228" text-anchor="middle" font-size="10">08-15</text><text x="204.2" y="116.0" text-anchor="middle" font-size="10">1532</text>
<circle cx="212.7" cy="160.5" r="3" fill="#2563eb"/><text x="212.7" y="228" text-anchor="middle" font-size="10">08-16</text><text x="212.7" y="152.5" text-anchor="middle" font-size="10">796</text>
<circle cx="221.2" cy="125.8" r="3" fill="#2563eb"/><text x="221.2" y="228" text-anchor="middle" font-size="10">08-17</text><text x="221.2" y="117.8" text-anchor="middle" font-size="10">1496</text>
<circle cx="229.7" cy="159.3" r="3" fill="#2563eb"/><text x="229.7" y="228" text-anchor="middle" font-size="10">08-18</text><text x="229.7" y="151.3" text-anchor="middle" font-size="10">821</text>
<circle cx="238.2" cy="162.5" r="3" fill="#2563eb"/><text x="238.2" y="228" text-anchor="middle" font-size="10">08-20</text><text x="238.2" y="154.5" text-anchor="middle" font-size="10">755</text>
<circle cx="246.7" cy="129.0" r="3" fill="#2563eb"/><text x="246.7" y="228" text-anchor="middle" font-size="10">08-21</text><text x="246.7" y="121.0" text-anchor="middle" font-size="10">1430</text>
<circle cx="255.2" cy="166.5" r="3" fill="#2563eb"/><text x="255.2" y="228" text-anchor="middle" font-size="10">08-22</text><text x="255.2" y="158.5" text-anchor="middle" font-size="10">675</text>
<circle cx="263.6" cy="139.1" r="3" fill="#2563eb"/><text x="263.6" y="228" text-anchor="middle" font-size="10">08-23</text><text x="263.6" y="131.1" text-anchor="middle" font-size="10">1228</text>
<circle cx="272.1" cy="118.1" r="3" fill="#2563eb"/><text x="272.1" y="228" text-anchor="middle" font-size="10">08-24</text><text x="272.1" y="110.1" text-anchor="middle" font-size="10">1651</text>
<circle cx="280.6" cy="132.7" r="3" fill="#2563eb"/><text x="280.6" y="228" text-anchor="middle" font-size="10">08-25</text><text x="280.6" y="124.7" text-anchor="middle" font-size="10">1356</text>
<circle cx="289.1" cy="169.2" r="3" fill="#2563eb"/><text x="289.1" y="228" text-anchor="middle" font-size="10">08-27</text><text x="289.1" y="161.2" text-anchor="middle" font-size="10">620</text>
<circle cx="297.6" cy="140.6" r="3" fill="#2563eb"/><text x="297.6" y="228" text-anchor="middle" font-size="10">08-28</text><text x="297.6" y="132.6" text-anchor="middle" font-size="10">1196</text>
<circle cx="306.1" cy="131.0" r="3" fill="#2563eb"/><text x="306.1" y="228" text-anchor="middle" font-size="10">08-29</text><text x="306.1" y="123.0" text-anchor="middle" font-size="10">1390</text>
<circle cx="314.5" cy="127.9" r="3" fill="#2563eb"/><text x="314.5" y="228" text-anchor="middle" font-size="10">08-29</text><text x="314.5" y="119.9" text-anchor="middle" font-size="10">1452</text>
<circle cx="323.0" cy="167.7" r="3" fill="#2563eb"/><text x="323.0" y="228" text-anchor="middle" font-size="10">08-30</text><text x="323.0" y="159.7" text-anchor="middle" font-size="10">651</text>
<circle cx="331.5" cy="129.7" r="3" fill="#2563eb"/><text x="331.5" y="228" text-anchor="middle" font-size="10">09-01</text><text x="331.5" y="121.7" text-anchor="middle" font-size="10">1417</text>
<circle cx="340.0" cy="168.9" r="3" fill="#2563eb"/><text x="340.0" y="228" text-anchor="middle" font-size="10">09-01</text><text x="340.0" y="160.9" text-anchor="middle" font-size="10">626</text>
<circle cx="348.5" cy="137.1" r="3" fill="#2563eb"/><text x="348.5" y="228" text-anchor="middle" font-size="10">09-02</text><text x="348.5" y="129.1" text-anchor="middle" font-size="10">1267</text>
<circle cx="357.0" cy="127.9" r="3" fill="#2563eb"/><text x="357.0" y="228" text-anchor="middle" font-size="10">09-03</text><text x="357.0" y="119.9" text-anchor="middle" font-size="10">1453</text>
<circle cx="365.5" cy="104.7" r="3" fill="#2563eb"/><text x="365.5" y="228" text-anchor="middle" font-size="10">09-04</text><text x="365.5" y="96.7" text-anchor="middle" font-size="10">1921</text>
<circle cx="373.9" cy="160.9" r="3" fill="#2563eb"/><text x="373.9" y="228" text-anchor="middle" font-size="10">09-05</text><text x="373.9" y="152.9" text-anchor="middle" font-size="10">787</text>
<circle cx="382.4" cy="134.1" r="3" fill="#2563eb"/><text x="382.4" y="228" text-anchor="middle" font-size="10">09-06</text><text x="382.4" y="126.1" text-anchor="middle" font-size="10">1327</text>
<circle cx="390.9" cy="162.6" r="3" fill="#2563eb"/><text x="390.9" y="228" text-anchor="middle" font-size="10">09-07</text><text x="390.9" y="154.6" text-anchor="middle" font-size="10">753</text>
<circle cx="399.4" cy="126.7" r="3" fill="#2563eb"/><text x="399.4" y="228" text-anchor="middle" font-size="10">09-08</text><text x="399.4" y="118.7" text-anchor="middle" font-size="10">1478</text>
<circle cx="407.9" cy="143.6" r="3" fill="#2563eb"/><text x="407.9" y="228" text-anchor="middle" font-size="10">09-09</text><text x="407.9" y="135.6" text-anchor="middle" font-size="10">1136</text>
<circle cx="416.4" cy="130.3" r="3" fill="#2563eb"/><text x="416.4" y="228" text-anchor="middle" font-size="10">09-10</text><text x="416.4" y="122.3" text-anchor="middle" font-size="10">1405</text>
<circle cx="424.8" cy="137.3" r="3" fill="#2563eb"/><text x="424.8" y="228" text-anchor="middle" font-size="10">09-11</text><text x="424.8" y="129.3" text-anchor="middle" font-size="10">1263</text>
<circle cx="433.3" cy="131.2" r="3" fill="#2563eb"/><text x="433.3" y="228" text-anchor="middle" font-size="10">09-12</text><text x="433.3" y="123.2" text-anchor="middle" font-size="10">1387</text>
<circle cx="441.8" cy="132.9" r="3" fill="#2563eb"/><text x="441.8" y="228" text-anchor="middle" font-size="10">09-13</text><text x="441.8" y="124.9" text-anchor="middle" font-size="10">1352</text>
<circle cx="450.3" cy="125.1" r="3" fill="#2563eb"/><text x="450.3" y="228" text-anchor="middle" font-size="10">09-14</text><text x="450.3" y="117.1" text-anchor="middle" font-size="10">1509</text>
<circle cx="458.8" cy="141.2" r="3" fill="#2563eb"/><text x="458.8" y="228" text-anchor="middle" font-size="10">09-15</text><text x="458.8" y="133.2" text-anchor="middle" font-size="10">1185</text>
<circle cx="467.3" cy="142.4" r="3" fill="#2563eb"/><text x="467.3" y="228" text-anchor="middle" font-size="10">09-16</text><text x="467.3" y="134.4" text-anchor="middle" font-size="10">1161</text>
<circle cx="475.8" cy="40.0" r="3" fill="#2563eb"/><text x="475.8" y="228" text-anchor="middle" font-size="10">09-17</text><text x="475.8" y="32.0" text-anchor="middle" font-size="10">3224</text>
<circle cx="484.2" cy="136.6" r="3" fill="#2563eb"/><text x="484.2" y="228" text-anchor="middle" font-size="10">09-18</text><text x="484.2" y="128.6" text-anchor="middle" font-size="10">1277</text>
<circle cx="492.7" cy="159.1" r="3" fill="#2563eb"/><text x="492.7" y="228" text-anchor="middle" font-size="10">09-19</text><text x="492.7" y="151.1" text-anchor="middle" font-size="10">824</text>
<circle cx="501.2" cy="136.1" r="3" fill="#2563eb"/><text x="501.2" y="228" text-anchor="middle" font-size="10">09-20</text><text x="501.2" y="128.1" text-anchor="middle" font-size="10">1288</text>
<circle cx="509.7" cy="132.8" r="3" fill="#2563eb"/><text x="509.7" y="228" text-anchor="middle" font-size="10">09-21</text><text x="509.7" y="124.8" text-anchor="middle" font-size="10">1354</text>
<circle cx="518.2" cy="129.0" r="3" fill="#2563eb"/><text x="518.2" y="228" text-anchor="middle" font-size="10">09-22</text><text x="518.2" y="121.0" text-anchor="middle" font-size="10">1431</text>
<circle cx="526.7" cy="137.3" r="3" fill="#2563eb"/><text x="526.7" y="228" text-anchor="middle" font-size="10">09-23</text><text x="526.7" y="129.3" text-anchor="middle" font-size="10">1264</text>
<circle cx="535.2" cy="143.4" r="3" fill="#2563eb"/><text x="535.2" y="228" text-anchor="middle" font-size="10">09-24</text><text x="535.2" y="135.4" text-anchor="middle" font-size="10">1141</text>
<circle cx="543.6" cy="160.5" r="3" fill="#2563eb"/><text x="543.6" y="228" text-anchor="middle" font-size="10">09-25</text><text x="543.6" y="152.5" text-anchor="middle" font-size="10">796</text>
<circle cx="552.1" cy="160.2" r="3" fill="#2563eb"/><text x="552.1" y="228" text-anchor="middle" font-size="10">09-26</text><text x="552.1" y="152.2" text-anchor="middle" font-size="10">802</text>
<circle cx="560.6" cy="135.2" r="3" fill="#2563eb"/><text x="560.6" y="228" text-anchor="middle" font-size="10">09-27</text><text x="560.6" y="127.2" text-anchor="middle" font-size="10">1305</text>
<circle cx="569.1" cy="126.2" r="3" fill="#2563eb"/><text x="569.1" y="228" text-anchor="middle" font-size="10">09-29</text><text x="569.1" y="118.2" text-anchor="middle" font-size="10">1487</text>
<circle cx="577.6" cy="132.8" r="3" fill="#2563eb"/><text x="577.6" y="228" text-anchor="middle" font-size="10">09-30</text><text x="577.6" y="124.8" text-anchor="middle" font-size="10">1354</text>
<circle cx="586.1" cy="123.9" r="3" fill="#2563eb"/><text x="586.1" y="228" text-anchor="middle" font-size="10">10-01</text><text x="586.1" y="115.9" text-anchor="middle" font-size="10">1534</text>
<circle cx="594.5" cy="133.0" r="3" fill="#2563eb"/><text x="594.5" y="228" text-anchor="middle" font-size="10">10-02</text><text x="594.5" y="125.0" text-anchor="middle" font-size="10">1350</text>
<circle cx="603.0" cy="130.5" r="3" fill="#2563eb"/><text x="603.0" y="228" text-anchor="middle" font-size="10">10-03</text><text x="603.0" y="122.5" text-anchor="middle" font-size="10">1400</text>
<circle cx="611.5" cy="143.7" r="3" fill="#2563eb"/><text x="611.5" y="228" text-anchor="middle" font-size="10">10-03</text><text x="611.5" y="135.7" text-anchor="middle" font-size="10">1134</text>
<circle cx="620.0" cy="101.3" r="3" fill="#2563eb"/><text x="620.0" y="228" text-anchor="middle" font-size="10">10-04</text><text x="620.0" y="93.3" text-anchor="middle" font-size="10">1988</text>
</svg>